<?xml version="1.0" encoding="iso-8859-1"?>
<!-- Generator: Adobe Illustrator 17.1.0, SVG Export Plug-In . SVG Version: 6.00 Build 0)  -->
<!DOCTYPE svg PUBLIC "-//W3C//DTD SVG 1.1//EN" "http://www.w3.org/Graphics/SVG/1.1/DTD/svg11.dtd">
<svg version="1.1" id="Capa_1" xmlns="http://www.w3.org/2000/svg" xmlns:xlink="http://www.w3.org/1999/xlink" x="0px" y="0px"
	 viewBox="0 0 328.998 328.998" style="enable-background:new 0 0 328.998 328.998;" xml:space="preserve">
<path d="M328.998,126.517c0-38.997-31.545-70.751-70.456-71.119c-0.062-13.372-10.956-24.232-24.343-24.232H24.346
	C10.922,31.165,0,42.087,0,55.511v193.495c0,13.424,10.922,24.346,24.346,24.346h6.265v5.212c0,4.766,0,19.268,14.004,19.268
	h169.313c14.006,0,14.006-14.502,14.006-19.268v-5.212h6.264c13.425,0,24.346-10.922,24.346-24.346v-51.37
	C297.454,197.266,328.998,165.513,328.998,126.517z M258.544,162.636V90.397c19.61,0.367,35.453,16.423,35.453,36.119
	S278.155,162.269,258.544,162.636z"/>
<g>
</g>
<g>
</g>
<g>
</g>
<g>
</g>
<g>
</g>
<g>
</g>
<g>
</g>
<g>
</g>
<g>
</g>
<g>
</g>
<g>
</g>
<g>
</g>
<g>
</g>
<g>
</g>
<g>
</g>
</svg>
