<svg height="512" viewBox="0 0 64 64" width="512" xmlns="http://www.w3.org/2000/svg"><g id="flat"><path d="m6 22h52v30h-52z" fill="#394d5c"/><path d="m31 31h5l-3 5h5l-7 9v-5h-5z" fill="#fcf05a"/><path d="m3 52h58v4h-58z" fill="#dd3e46"/><path d="m57.926 16h-51.852l-2.074 3v3h56v-3z" fill="#dd3e46"/><path d="m10 12h6v4h-6z" fill="#32b1cc"/><path d="m48 12h6v4h-6z" fill="#32b1cc"/><path d="m23 8h18v4h-18z" fill="#195c85"/><path d="m23 12h4v4h-4z" fill="#32b1cc"/><path d="m37 12h4v4h-4z" fill="#32b1cc"/><path d="m42 26h12v12h-12z" fill="#7d8d9c"/><path d="m10 26h12v12h-12z" fill="#7d8d9c"/><path d="m13 31h6v2h-6z" fill="#f4f4e6"/><path d="m51 31h-2v-2h-2v2h-2v2h2v2h2v-2h2z" fill="#f4f4e6"/><g fill="#7d8d9c"><path d="m53 47h2v2h-2z"/><path d="m49 47h2v2h-2z"/><path d="m16 49h-6a1 1 0 0 1 -1-1v-4h2v3h5z"/></g></g></svg>