<svg xmlns="http://www.w3.org/2000/svg" xmlns:xlink="http://www.w3.org/1999/xlink" version="1.1" x="0px" y="0px" viewBox="0 0 100 125" style="enable-background:new 0 0 100 100;" xml:space="preserve"><style type="text/css">
	.st0{fill:none;stroke:#000000;stroke-width:2;stroke-linecap:round;stroke-linejoin:round;stroke-miterlimit:10;}
</style><path d="M77.5,13.3H22.4c-0.6,0-1,0.4-1,1v73.5c0,0.6,0.4,1,1,1h55.1c0.6,0,1-0.4,1-1V14.3C78.5,13.7,78.1,13.3,77.5,13.3z   M76.5,86.8H23.4V15.3h53.1V86.8z"/><path d="M30.6,80.6h38.8c0.6,0,1-0.4,1-1v-5.6h1.9c0.6,0,1-0.4,1-1V62.3c0-0.6-0.4-1-1-1h-1.9V41.4h1.9c0.6,0,1-0.4,1-1V29.8  c0-0.6-0.4-1-1-1h-1.9v-6.3c0-0.6-0.4-1-1-1H30.6c-0.6,0-1,0.4-1,1v57.1C29.6,80.1,30,80.6,30.6,80.6z M71.2,71.9h-3.8v-8.7h3.8  V71.9z M71.2,39.4h-3.8v-8.7h3.8V39.4z M31.6,23.5h36.8v5.3h-2c-0.6,0-1,0.4-1,1v10.7c0,0.6,0.4,1,1,1h2v19.8h-2c-0.6,0-1,0.4-1,1  v10.7c0,0.6,0.4,1,1,1h2v4.6H31.6V23.5z"/><path d="M54.2,51l-5.8-2.7l5.8-3.4c0.5-0.3,0.6-0.9,0.4-1.4c-0.3-0.5-0.9-0.6-1.4-0.4l-7.5,4.3c-0.3,0.2-0.5,0.5-0.5,0.9  c0,0.4,0.2,0.7,0.6,0.9l5.9,2.8l-6.1,4.1c-0.5,0.3-0.6,0.9-0.3,1.4c0.2,0.3,0.5,0.4,0.8,0.4c0.2,0,0.4-0.1,0.6-0.2l7.6-5.1  c0.3-0.2,0.5-0.5,0.4-0.9S54.5,51.2,54.2,51z"/><path d="M50,37.8c-7.3,0-13.2,5.9-13.2,13.2c0,7.3,5.9,13.2,13.2,13.2c7.3,0,13.2-5.9,13.2-13.2C63.2,43.7,57.2,37.8,50,37.8z   M50,62.2c-6.2,0-11.2-5-11.2-11.2c0-6.2,5-11.2,11.2-11.2c6.2,0,11.2,5,11.2,11.2C61.2,57.2,56.1,62.2,50,62.2z"/><text x="0" y="115" fill="#000000" font-size="5px" font-weight="bold" font-family="'Helvetica Neue', Helvetica, Arial-Unicode, Arial, Sans-serif">Created by Made</text><text x="0" y="120" fill="#000000" font-size="5px" font-weight="bold" font-family="'Helvetica Neue', Helvetica, Arial-Unicode, Arial, Sans-serif">from the Noun Project</text></svg>