<svg xmlns="http://www.w3.org/2000/svg" xmlns:xlink="http://www.w3.org/1999/xlink" version="1.1" x="0px" y="0px" viewBox="0 0 100 125" style="enable-background:new 0 0 100 100;" xml:space="preserve"><path d="M57.9462891,10.4482422C57.7607422,10.1679688,57.4482422,10,57.1123047,10H44.2548828  c-0.5078125,0-0.9355469,0.3808594-0.9931641,0.8867188l-1.5732422,13.7451172  c-0.0322266,0.28125,0.0566406,0.5644531,0.2451172,0.7763672c0.1884766,0.2128906,0.4580078,0.3349609,0.7421875,0.3369141  l2.6318359,0.0166016l-1.4960938,9.9638672c-0.0634766,0.4248047,0.1513672,0.8427734,0.5332031,1.0380859  c0.1445312,0.0742188,0.3007812,0.1103516,0.4560547,0.1103516c0.2548828,0,0.5068359-0.0976562,0.6982422-0.2841797  l15.0195312-14.6503906c0.2910156-0.2832031,0.3808594-0.7148438,0.2285156-1.0917969  c-0.1523438-0.3759766-0.5175781-0.6230469-0.9238281-0.6240234l-5.5371094-0.0146484l3.7460938-8.8183594  C58.1640625,11.0820312,58.1318359,10.7285156,57.9462891,10.4482422z M51.8564453,20.8144531  c-0.1318359,0.3076172-0.0996094,0.6611328,0.0849609,0.9414062c0.1845703,0.2792969,0.4970703,0.4482422,0.8320312,0.4492188  l4.5957031,0.0117188L46.2314453,33.0820312l1.2255859-8.1650391c0.0429688-0.2871094-0.0410156-0.578125-0.2294922-0.7988281  c-0.1884766-0.2197266-0.4638672-0.3476562-0.7539062-0.3496094l-2.671875-0.0166016L45.1464844,12h10.4541016  L51.8564453,20.8144531z"/><path d="M31.5917969,10.4482422C31.40625,10.1679688,31.09375,10,30.7578125,10H17.9003906  c-0.5087891,0-0.9355469,0.3808594-0.9931641,0.8867188l-1.5722656,13.7451172  c-0.0322266,0.28125,0.0566406,0.5644531,0.2451172,0.7763672c0.1884766,0.2128906,0.4580078,0.3349609,0.7421875,0.3369141  l2.6318359,0.0166016l-1.4970703,9.9638672c-0.0634766,0.4248047,0.1513672,0.8427734,0.5332031,1.0380859  c0.1445312,0.0742188,0.3007812,0.1103516,0.4560547,0.1103516c0.2548828,0,0.5068359-0.0976562,0.6982422-0.2841797  l15.0195312-14.6503906c0.2910156-0.2832031,0.3808594-0.7148438,0.2285156-1.0917969  C34.2402344,20.4716797,33.875,20.2246094,33.46875,20.2236328l-5.5361328-0.0146484l3.7451172-8.8183594  C31.8095703,11.0820312,31.7773438,10.7285156,31.5917969,10.4482422z M25.5029297,20.8144531  c-0.1318359,0.3076172-0.0996094,0.6621094,0.0849609,0.9414062s0.4970703,0.4482422,0.8320312,0.4492188l4.5947266,0.0117188  L19.8769531,33.0820312l1.2265625-8.1650391c0.0429688-0.2871094-0.0410156-0.578125-0.2294922-0.7988281  c-0.1884766-0.2197266-0.4638672-0.3476562-0.7539062-0.3496094l-2.671875-0.0166016L18.7929688,12h10.453125L25.5029297,20.8144531  z"/><path d="M83.7978516,10.4482422C83.6123047,10.1679688,83.2998047,10,82.9638672,10H70.1064453  c-0.5087891,0-0.9355469,0.3808594-0.9931641,0.8867188l-1.5722656,13.7451172  c-0.0322266,0.28125,0.0566406,0.5644531,0.2451172,0.7763672c0.1884766,0.2128906,0.4580078,0.3349609,0.7421875,0.3369141  l2.6318359,0.0166016l-1.4970703,9.9638672c-0.0634766,0.4248047,0.1513672,0.8427734,0.5332031,1.0380859  c0.1445312,0.0742188,0.3007812,0.1103516,0.4560547,0.1103516c0.2548828,0,0.5068359-0.0976562,0.6982422-0.2841797  l15.0195312-14.6503906c0.2910156-0.2832031,0.3808594-0.7148438,0.2285156-1.0917969  c-0.1523438-0.3759766-0.5175781-0.6230469-0.9238281-0.6240234l-5.5361328-0.0146484l3.7451172-8.8183594  C84.015625,11.0820312,83.9833984,10.7285156,83.7978516,10.4482422z M77.7089844,20.8144531  c-0.1318359,0.3076172-0.0996094,0.6621094,0.0849609,0.9414062s0.4970703,0.4482422,0.8320312,0.4492188l4.5947266,0.0117188  L72.0830078,33.0820312l1.2265625-8.1650391c0.0429688-0.2871094-0.0410156-0.578125-0.2294922-0.7988281  c-0.1884766-0.2197266-0.4638672-0.3476562-0.7539062-0.3496094l-2.671875-0.0166016L70.9990234,12h10.453125L77.7089844,20.8144531  z"/><path d="M89,78.1445312h-9.1328125v-8.2724609h3.0214844c0.3212891,0,0.6230469-0.1542969,0.8115234-0.4150391  c0.1875-0.2607422,0.2392578-0.5957031,0.1376953-0.9003906l-1.876709-5.640625h0.9274902  c0.3212891,0,0.6230469-0.1542969,0.8115234-0.4150391c0.1875-0.2607422,0.2392578-0.5957031,0.1376953-0.9003906  l-1.876709-5.6396484h0.9274902c0.3212891,0,0.6230469-0.1542969,0.8115234-0.4150391  c0.1875-0.2607422,0.2392578-0.5957031,0.1376953-0.9003906l-2.3144531-6.9560547  c-0.1367188-0.4091797-0.5185547-0.6845703-0.9492188-0.6845703h-2.796875v-4.1679688c0-0.5527344-0.4472656-1-1-1h-5.3486328  c-0.5527344,0-1,0.4472656-1,1v4.1679688h-2.796875c-0.4306641,0-0.8125,0.2753906-0.9492188,0.6845703l-2.3144531,6.9560547  c-0.1015625,0.3046875-0.0498047,0.6396484,0.1376953,0.9003906c0.1884766,0.2607422,0.4902344,0.4150391,0.8115234,0.4150391  h0.9274902l-1.876709,5.6396484c-0.1015625,0.3046875-0.0498047,0.6396484,0.1376953,0.9003906  c0.1884766,0.2607422,0.4902344,0.4150391,0.8115234,0.4150391h0.9274902l-1.876709,5.640625  c-0.1015625,0.3046875-0.0498047,0.6396484,0.1376953,0.9003906c0.1884766,0.2607422,0.4902344,0.4150391,0.8115234,0.4150391  h3.0214844v8.2724609H55.7646484v-8.2724609h3.0214844c0.3212891,0,0.6230469-0.1542969,0.8115234-0.4150391  c0.1875-0.2607422,0.2392578-0.5957031,0.1376953-0.9003906l-1.876709-5.640625h0.9274902  c0.3212891,0,0.6230469-0.1542969,0.8115234-0.4150391c0.1875-0.2607422,0.2392578-0.5957031,0.1376953-0.9003906  l-1.876709-5.6396484h0.9274902c0.3212891,0,0.6230469-0.1542969,0.8115234-0.4150391  c0.1875-0.2607422,0.2392578-0.5957031,0.1376953-0.9003906l-2.3144531-6.9560547  c-0.1367188-0.4091797-0.5185547-0.6845703-0.9492188-0.6845703h-2.796875v-4.1679688c0-0.5527344-0.4472656-1-1-1h-5.3496094  c-0.5527344,0-1,0.4472656-1,1v4.1679688h-2.796875c-0.4306641,0-0.8125,0.2753906-0.9492188,0.6845703l-2.3144531,6.9560547  c-0.1015625,0.3046875-0.0498047,0.6396484,0.1376953,0.9003906c0.1884766,0.2607422,0.4902344,0.4150391,0.8115234,0.4150391  h0.9274902l-1.876709,5.6396484c-0.1015625,0.3046875-0.0498047,0.6396484,0.1376953,0.9003906  c0.1884766,0.2607422,0.4902344,0.4150391,0.8115234,0.4150391h0.9274902l-1.876709,5.640625  c-0.1015625,0.3046875-0.0498047,0.6396484,0.1376953,0.9003906c0.1884766,0.2607422,0.4902344,0.4150391,0.8115234,0.4150391  h3.0214844v8.2724609H31.6611328v-8.2724609h3.0214844c0.3212891,0,0.6230469-0.1542969,0.8115234-0.4150391  c0.1875-0.2607422,0.2392578-0.5957031,0.1376953-0.9003906l-1.876709-5.640625h0.9274902  c0.3212891,0,0.6230469-0.1542969,0.8115234-0.4150391c0.1875-0.2607422,0.2392578-0.5957031,0.1376953-0.9003906  l-1.876709-5.6396484h0.9274902c0.3212891,0,0.6230469-0.1542969,0.8115234-0.4150391  c0.1875-0.2607422,0.2392578-0.5957031,0.1376953-0.9003906l-2.3144531-6.9560547  c-0.1367188-0.4091797-0.5185547-0.6845703-0.9492188-0.6845703h-2.796875v-4.1679688c0-0.5527344-0.4472656-1-1-1h-5.3486328  c-0.5527344,0-1,0.4472656-1,1v4.1679688h-2.796875c-0.4306641,0-0.8125,0.2753906-0.9492188,0.6845703l-2.3144531,6.9560547  c-0.1015625,0.3046875-0.0498047,0.6396484,0.1376953,0.9003906c0.1884766,0.2607422,0.4902344,0.4150391,0.8115234,0.4150391  h0.9274902l-1.876709,5.6396484c-0.1015625,0.3046875-0.0498047,0.6396484,0.1376953,0.9003906  c0.1884766,0.2607422,0.4902344,0.4150391,0.8115234,0.4150391h0.9274902l-1.876709,5.640625  c-0.1015625,0.3046875-0.0498047,0.6396484,0.1376953,0.9003906c0.1884766,0.2607422,0.4902344,0.4150391,0.8115234,0.4150391  h3.0214844v8.2724609H11c-0.5527344,0-1,0.4472656-1,1V89c0,0.5527344,0.4472656,1,1,1h78c0.5527344,0,1-0.4472656,1-1v-9.8554688  C90,78.5917969,89.5527344,78.1445312,89,78.1445312z M72.4287109,43.8369141h3.3486328v3.1679688h-3.3486328V43.8369141z   M68.3525391,49.0048828h11.5009766l1.6484375,4.9560547h-0.9277344H67.6318359h-0.9277344L68.3525391,49.0048828z   M79.8535156,55.9609375l1.6484375,4.9550781h-0.9277344H67.6318359h-0.9277344l1.6484375-4.9550781H79.8535156z   M68.3525391,62.9160156h11.5009766l1.6484375,4.9560547H66.7041016L68.3525391,62.9160156z M70.3388672,69.8720703h7.5283203  v8.2724609h-7.5283203V69.8720703z M48.3251953,43.8369141h3.3496094v3.1679688h-3.3496094V43.8369141z M44.2490234,49.0048828  h11.5019531l1.6484375,4.9560547h-0.9277344H43.5283203h-0.9277344L44.2490234,49.0048828z M55.7509766,55.9609375  l1.6484375,4.9550781h-0.9277344H43.5283203h-0.9277344l1.6484375-4.9550781H55.7509766z M44.2490234,62.9160156h11.5019531  l1.6484375,4.9560547H42.6005859L44.2490234,62.9160156z M46.2353516,69.8720703h7.5292969v8.2724609h-7.5292969V69.8720703z   M24.2226562,43.8369141h3.3486328v3.1679688h-3.3486328V43.8369141z M20.1464844,49.0048828h11.5009766l1.6484375,4.9560547  h-0.9277344H19.4257812h-0.9277344L20.1464844,49.0048828z M31.6474609,55.9609375l1.6484375,4.9550781h-0.9277344H19.4257812  h-0.9277344l1.6484375-4.9550781H31.6474609z M20.1464844,62.9160156h11.5009766l1.6484375,4.9560547H18.4980469  L20.1464844,62.9160156z M22.1328125,69.8720703h7.5283203v8.2724609h-7.5283203V69.8720703z M88,88H12v-7.8554688h76V88z"/><text x="0" y="115" fill="#000000" font-size="5px" font-weight="bold" font-family="'Helvetica Neue', Helvetica, Arial-Unicode, Arial, Sans-serif">Created by Made</text><text x="0" y="120" fill="#000000" font-size="5px" font-weight="bold" font-family="'Helvetica Neue', Helvetica, Arial-Unicode, Arial, Sans-serif">from the Noun Project</text></svg>