<svg width="100" height="100" xmlns="http://www.w3.org/2000/svg">

 <g>
  <title>background</title>
  <rect fill="none" id="canvas_background" height="102" width="102" y="-1" x="-1"/>
 </g>
 <g>
  <title>Layer 1</title>
  <path id="svg_1" d="m90,50c0,-22.05566 -17.94384,-40 -40,-40s-40,17.94434 -40,40s17.94385,40 40,40c0.55225,0 1,-0.44726 1,-1s-0.44775,-1 -1,-1c-20.95312,0 -38,-17.04687 -38,-38s17.04688,-38 38,-38s38,17.04688 38,38c0,11.32971 -4.91729,21.82202 -13.53906,29.0686l0,-5.06958c0,-0.55273 -0.44775,-1 -1,-1s-1,0.44727 -1,1l0,7.21875c0,0.55274 0.44776,1 1,1l7.42237,0c0.55224,0 1,-0.44726 1,-1s-0.44776,-1 -1,-1l-4.6753,0c8.79383,-7.61071 13.79199,-18.49194 13.79199,-30.21777z"/>
  <path id="svg_2" d="m65.24094,45.06348l-11.01807,-0.02929l7.12012,-16.76075c0.13135,-0.30859 0.09863,-0.66211 -0.08643,-0.94238s-0.49853,-0.44824 -0.83398,-0.44824l-22.86426,0c-0.5083,0 -0.93555,0.38086 -0.99365,0.88672l-2.79688,24.44433c-0.03222,0.28125 0.05713,0.56446 0.24561,0.77637c0.18799,0.21289 0.45801,0.33496 0.74219,0.33692l5.5791,0.03418l-2.79444,18.60742c-0.06396,0.4248 0.15039,0.84277 0.53272,1.03808c0.14453,0.07422 0.30078,0.11035 0.45557,0.11035c0.25537,0 0.50732,-0.09765 0.69873,-0.28418l26.70947,-26.05371c0.29101,-0.2832 0.38135,-0.71484 0.22851,-1.09179c-0.15283,-0.37598 -0.51806,-0.62305 -0.92431,-0.62403zm-25.28125,24.26172l2.52392,-16.80859c0.04346,-0.28711 -0.04052,-0.57813 -0.229,-0.79883c-0.18848,-0.21973 -0.46338,-0.34766 -0.75391,-0.34961l-5.61914,-0.03418l2.56885,-22.45117l20.46094,0l-7.11865,16.75684c-0.13086,0.30761 -0.09864,0.66113 0.08593,0.9414c0.18409,0.2793 0.49659,0.44824 0.83203,0.44922l10.07715,0.02637l-22.82812,22.26855z"/>
  <text id="svg_3" font-family="'Helvetica Neue', Helvetica, Arial-Unicode, Arial, Sans-serif" font-weight="bold" font-size="5px" fill="#000000" y="115" x="0">Created by Made</text>
  <text id="svg_4" font-family="'Helvetica Neue', Helvetica, Arial-Unicode, Arial, Sans-serif" font-weight="bold" font-size="5px" fill="#000000" y="120" x="0">from the Noun Project</text>
 </g>
</svg>