<svg xmlns="http://www.w3.org/2000/svg" xmlns:xlink="http://www.w3.org/1999/xlink" version="1.1" x="0px" y="0px" viewBox="0 0 64 80" enable-background="new 0 0 64 64" xml:space="preserve"><g><path d="M14.99,44.507h-6c-0.553,0-1,0.447-1,1v6c0,0.553,0.447,1,1,1h6c0.553,0,1-0.447,1-1v-6   C15.99,44.954,15.543,44.507,14.99,44.507z M13.99,50.507h-4v-4h4V50.507z"/><path d="M28.99,52.507h6c0.553,0,1-0.447,1-1v-6c0-0.553-0.447-1-1-1h-6c-0.553,0-1,0.447-1,1v6   C27.99,52.06,28.438,52.507,28.99,52.507z M29.99,46.507h4v4h-4V46.507z"/><path d="M21.99,43.507c2.206,0,4-1.794,4-4s-1.794-4-4-4s-4,1.794-4,4S19.784,43.507,21.99,43.507z M21.99,37.507   c1.103,0,2,0.897,2,2s-0.897,2-2,2s-2-0.897-2-2S20.888,37.507,21.99,37.507z"/><path d="M1,60.507c-0.553,0-1,0.447-1,1s0.447,1,1,1h62c0.553,0,1-0.447,1-1s-0.447-1-1-1h-9.007v-29H63c0.553,0,1-0.447,1-1   s-0.447-1-1-1h-9.007v-1.003h4.003v0.001c0,0.553,0.447,1,1,1s1-0.447,1-1v-1.001c0-0.034-0.017-0.063-0.02-0.098   c-0.007-0.065-0.02-0.127-0.039-0.19c-0.02-0.064-0.042-0.124-0.074-0.182c-0.028-0.053-0.061-0.1-0.099-0.146   c-0.046-0.057-0.094-0.105-0.15-0.151c-0.024-0.02-0.038-0.047-0.064-0.064l-5.557-3.708v-0.458h8.99c0.553,0,1-0.447,1-1   s-0.447-1-1-1h-8.99v-1.003h7.99v0.003c0,0.553,0.447,1,1,1s1-0.447,1-1v-1.003c0-0.553-0.447-1-1-1h-3.686l-5.305-3.54v-0.457   h8.99c0.553,0,1-0.447,1-1s-0.447-1-1-1h-8.99V10.5h4.002v0.005c0,0.553,0.447,1,1,1s1-0.447,1-1V9.5   c0-0.033-0.016-0.061-0.019-0.093c-0.007-0.069-0.02-0.134-0.041-0.2c-0.019-0.062-0.041-0.117-0.07-0.173   s-0.063-0.104-0.104-0.153c-0.044-0.055-0.091-0.102-0.146-0.146c-0.024-0.02-0.039-0.048-0.066-0.066L53.993,4.96V4.03   C53.994,4.019,54,4.008,54,3.996c0-1.38-1.123-2.503-2.504-2.503c-1.38,0-2.503,1.123-2.503,2.503v0.968l-5.551,3.704   c-0.027,0.019-0.042,0.047-0.066,0.066c-0.055,0.045-0.102,0.092-0.146,0.146c-0.04,0.05-0.074,0.099-0.104,0.154   s-0.052,0.111-0.07,0.173c-0.021,0.066-0.034,0.131-0.041,0.2c-0.003,0.032-0.019,0.06-0.019,0.093v1.005c0,0.553,0.447,1,1,1   s1-0.447,1-1V10.5h3.996v1.006H1c-0.553,0-1,0.447-1,1s0.447,1,1,1h47.993v0.461l-5.299,3.536h-3.701c-0.553,0-1,0.447-1,1v1.003   c0,0.553,0.447,1,1,1s1-0.447,1-1v-0.003h8v1.003h-9H1c-0.553,0-1,0.447-1,1s0.447,1,1,1h47.993v0.462l-5.551,3.704   c-0.027,0.019-0.042,0.047-0.066,0.066c-0.055,0.045-0.102,0.092-0.146,0.146c-0.04,0.05-0.074,0.099-0.104,0.154   s-0.052,0.111-0.07,0.173c-0.021,0.066-0.034,0.131-0.041,0.2c-0.003,0.032-0.019,0.06-0.019,0.093v1.001c0,0.553,0.447,1,1,1   s1-0.447,1-1v-0.001h3.996v1.003H29.979l-7.444-4.839c-0.332-0.215-0.758-0.215-1.09,0l-7.444,4.839H1c-0.553,0-1,0.447-1,1   s0.447,1,1,1h9.924l-9.479,6.161c-0.029,0.02-0.045,0.049-0.072,0.07c-0.054,0.044-0.102,0.09-0.146,0.144   c-0.04,0.049-0.074,0.099-0.104,0.153c-0.03,0.056-0.054,0.112-0.073,0.174c-0.021,0.066-0.033,0.131-0.041,0.199   c-0.003,0.034-0.02,0.063-0.02,0.099v4c0,0.029,0.014,0.054,0.017,0.083c0.006,0.067,0.021,0.132,0.04,0.198   c0.02,0.064,0.041,0.125,0.073,0.184c0.014,0.026,0.015,0.055,0.031,0.08c0.02,0.029,0.05,0.046,0.071,0.072   c0.043,0.054,0.088,0.102,0.142,0.145c0.05,0.041,0.101,0.075,0.156,0.105c0.055,0.03,0.11,0.053,0.171,0.072   c0.066,0.021,0.132,0.034,0.202,0.041c0.033,0.003,0.063,0.02,0.097,0.02c0.029,0,0.054-0.014,0.082-0.017   c0.068-0.006,0.133-0.021,0.199-0.04c0.064-0.02,0.125-0.041,0.184-0.073c0.026-0.014,0.055-0.015,0.08-0.031l1.455-0.946v18.107H1   z M19.99,50.507h4v10h-4V50.507z M55.695,26.504h-1.702v-1.136L55.695,26.504z M55.695,17.503h-1.702v-1.136L55.695,17.503z    M55.695,8.5h-1.702V7.364L55.695,8.5z M51.496,3.493c0.272,0,0.491,0.217,0.5,0.486c0,0.006-0.003,0.011-0.003,0.017v56.511h-1   V30.556c0.001-0.018,0.01-0.031,0.01-0.049s-0.009-0.031-0.01-0.049V21.54C50.994,21.528,51,21.518,51,21.506   s-0.006-0.022-0.007-0.034v-8.917c0.001-0.018,0.01-0.031,0.01-0.049s-0.009-0.031-0.01-0.049V3.996   C50.993,3.719,51.219,3.493,51.496,3.493z M47.297,8.5l1.696-1.132V8.5H47.297z M47.297,17.503l1.696-1.132v1.132H47.297z    M47.297,26.504l1.696-1.132v1.132H47.297z M48.993,31.507v29H39.99V42.399l1.455,0.946c0.033,0.021,0.069,0.03,0.104,0.047   c0.031,0.017,0.062,0.032,0.096,0.045c0.113,0.041,0.229,0.069,0.345,0.069h0.001l0,0c0,0,0.001,0,0.002,0   c0.118-0.001,0.233-0.028,0.345-0.069c0.023-0.01,0.047-0.017,0.069-0.027c0.101-0.046,0.193-0.106,0.275-0.186   c0.016-0.015,0.026-0.032,0.041-0.048c0.037-0.04,0.076-0.078,0.106-0.125c0.017-0.025,0.018-0.054,0.031-0.08   c0.032-0.059,0.054-0.119,0.073-0.185s0.034-0.13,0.04-0.197c0.003-0.029,0.017-0.054,0.017-0.083v-4   c0-0.035-0.017-0.064-0.02-0.099c-0.008-0.068-0.02-0.133-0.04-0.199c-0.021-0.062-0.044-0.118-0.074-0.174   c-0.03-0.055-0.063-0.104-0.104-0.153c-0.044-0.054-0.092-0.1-0.146-0.144c-0.027-0.021-0.043-0.051-0.072-0.07l-9.479-6.161   H48.993z M21.99,26.699l19,12.351v1.614L22.535,28.668c-0.332-0.215-0.758-0.215-1.09,0L2.99,40.664V39.05L21.99,26.699z    M5.99,41.1l16-10.4l16,10.4v19.407h-12v-11c0-0.553-0.447-1-1-1h-6c-0.553,0-1,0.447-1,1v11h-12V41.1z"/></g><text x="0" y="79" fill="#000000" font-size="5px" font-weight="bold" font-family="'Helvetica Neue', Helvetica, Arial-Unicode, Arial, Sans-serif">Created by lastspark</text><text x="0" y="84" fill="#000000" font-size="5px" font-weight="bold" font-family="'Helvetica Neue', Helvetica, Arial-Unicode, Arial, Sans-serif">from the Noun Project</text></svg>