<svg xmlns="http://www.w3.org/2000/svg" width="100" height="100" style=""><rect id="backgroundrect" width="100%" height="100%" x="0" y="0" fill="none" stroke="none"/>

 <g style="">
  <title>background</title>
  <rect fill="none" id="canvas_background" height="102" width="102" y="-1" x="-1"/>
 </g>
 <g style="" class="currentLayer">
  <title>Layer 1</title>
  <path id="svg_1" d="m28.2627,71.45313l-3.4126,-0.00879l2.43896,-5.74121c0.13135,-0.3086 0.09864,-0.66211 -0.08642,-0.94239s-0.49854,-0.44824 -0.83399,-0.44824l-8.98047,0c-0.5083,0 -0.93554,0.38086 -0.99365,0.88672l-1.09863,9.60058c-0.03223,0.28125 0.05713,0.56446 0.24512,0.77637c0.18847,0.21289 0.45849,0.33496 0.74218,0.33692l1.49073,0.00976l-0.99317,6.61524c-0.06396,0.4248 0.15039,0.84277 0.53272,1.03808c0.14453,0.07422 0.30078,0.11035 0.45556,0.11035c0.25537,0 0.50733,-0.09765 0.69873,-0.28418l10.49073,-10.23339c0.29101,-0.28321 0.38134,-0.71485 0.22851,-1.0918c-0.15283,-0.37598 -0.51806,-0.62305 -0.92431,-0.62402zm-9.0625,8.4414l0.72265,-4.8164c0.04297,-0.28711 -0.04053,-0.57813 -0.229,-0.79883c-0.18848,-0.21973 -0.46338,-0.34766 -0.75342,-0.34961l-1.53076,-0.00977l0.8706,-7.60742l6.57715,0l-2.4375,5.7373c-0.13086,0.30762 -0.09863,0.66211 0.08594,0.94141s0.49658,0.44824 0.83203,0.44922l2.47168,0.00684l-6.60937,6.44726z" class="" fill="#ffffff" fill-opacity="1"/>
  <path id="svg_2" d="m55.9873,71.45313l-3.41259,-0.00879l2.43896,-5.74121c0.13135,-0.3086 0.09863,-0.66211 -0.08642,-0.94239s-0.49854,-0.44824 -0.83399,-0.44824l-8.98047,0c-0.5083,0 -0.93554,0.38086 -0.99365,0.88672l-1.09863,9.60058c-0.03223,0.28125 0.05713,0.56446 0.24512,0.77637c0.18847,0.21289 0.45849,0.33496 0.74218,0.33692l1.49073,0.00976l-0.99317,6.61524c-0.06396,0.4248 0.15039,0.84277 0.53272,1.03808c0.14453,0.07422 0.30078,0.11035 0.45556,0.11035c0.25537,0 0.50733,-0.09765 0.69873,-0.28418l10.49073,-10.23339c0.29101,-0.28321 0.38134,-0.71485 0.22851,-1.0918c-0.15283,-0.37598 -0.51807,-0.62305 -0.92432,-0.62402zm-9.0625,8.4414l0.72266,-4.8164c0.04297,-0.28711 -0.04053,-0.57813 -0.229,-0.79883c-0.18848,-0.21973 -0.46338,-0.34766 -0.75342,-0.34961l-1.53076,-0.00977l0.8706,-7.60742l6.57715,0l-2.4375,5.7373c-0.13086,0.30762 -0.09863,0.66211 0.08594,0.94141s0.49658,0.44824 0.83203,0.44922l2.47168,0.00684l-6.60938,6.44726z" class="" fill="#ffffff" fill-opacity="1"/>
  <path id="svg_3" d="m83.71191,71.45313l-3.41259,-0.00879l2.43896,-5.74121c0.13135,-0.3086 0.09863,-0.66211 -0.08642,-0.94239s-0.49854,-0.44824 -0.83399,-0.44824l-8.98047,0c-0.5083,0 -0.93554,0.38086 -0.99365,0.88672l-1.09863,9.60058c-0.03223,0.28125 0.05713,0.56446 0.24511,0.77637c0.18848,0.21289 0.4585,0.33496 0.74219,0.33692l1.49072,0.00976l-0.99316,6.61524c-0.06396,0.4248 0.15039,0.84277 0.53272,1.03808c0.14453,0.07422 0.30078,0.11035 0.45556,0.11035c0.25537,0 0.50733,-0.09765 0.69873,-0.28418l10.49072,-10.23339c0.29102,-0.28321 0.38135,-0.71485 0.22852,-1.0918c-0.15283,-0.37598 -0.51807,-0.62305 -0.92432,-0.62402zm-9.0625,8.4414l0.72266,-4.8164c0.04297,-0.28711 -0.04053,-0.57813 -0.229,-0.79883c-0.18848,-0.21973 -0.46338,-0.34766 -0.75342,-0.34961l-1.53076,-0.00977l0.8706,-7.60742l6.57715,0l-2.4375,5.7373c-0.13086,0.30762 -0.09863,0.66211 0.08594,0.94141s0.49658,0.44824 0.83203,0.44922l2.47168,0.00684l-6.60938,6.44726z" class="" fill="#ffffff" fill-opacity="1"/>
  <path id="svg_4" d="m10.99951,90l22.55078,0c0.55225,0 1,-0.44727 1,-1l0,-78c0,-0.55273 -0.44775,-1 -1,-1l-22.55078,0c-0.55224,0 -1,0.44727 -1,1l0,78c0,0.55273 0.44776,1 1,1zm1,-2l0,-28.375l20.55078,0l0,28.375l-20.55078,0zm20.55078,-76l0,45.625l-20.55078,0l0,-45.625l20.55078,0z" class=""/><path d="m10.99951,90 l22.55078,0 c0.55225,0 1,-0.44727000000000006 1,-1 l0,-78 c0,-0.55273 -0.44775000000000004,-1 -1,-1 l-22.55078,0 c-0.5522400000000001,0 -1,0.44727000000000006 -1,1 l0,78 c0,0.55273 0.44776000000000005,1 1,1 zm1,-2 l0,-28.375 l20.55078,0 l0,28.375 l-20.55078,0 zm20.55078,-76 l0,45.625 l-20.55078,0 l0,-45.625 l20.55078,0 z" class="" id="svg_16" fill="#ffffff" fill-opacity="1"/>
  <path id="svg_5" d="m22.2749,31.12305c3.30078,0 5.98633,-2.68555 5.98633,-5.98633s-2.68555,-5.98633 -5.98633,-5.98633s-5.98633,2.68555 -5.98633,5.98633s2.68555,5.98633 5.98633,5.98633zm0,-9.97266c2.19824,0 3.98633,1.78809 3.98633,3.98633s-1.78809,3.98633 -3.98633,3.98633s-3.98633,-1.78809 -3.98633,-3.98633s1.78809,-3.98633 3.98633,-3.98633z" class="" fill="#ffffff" fill-opacity="1"/>
  <path id="svg_6" d="m17.26807,43.11035l10.01318,0c0.55225,0 1,-0.44726 1,-1s-0.44775,-1 -1,-1l-10.01318,0c-0.55225,0 -1,0.44727 -1,1s0.44775,1 1,1z" class="" fill="#ffffff" fill-opacity="1"/>
  <path id="svg_7" d="m17.26807,37.99609l10.01318,0c0.55225,0 1,-0.44726 1,-1s-0.44775,-1 -1,-1l-10.01318,0c-0.55225,0 -1,0.44727 -1,1s0.44775,1 1,1z" class="" fill="#ffffff" fill-opacity="1"/>
  <path id="svg_8" d="m62.27539,89l0,-78c0,-0.55273 -0.44775,-1 -1,-1l-22.55127,0c-0.55224,0 -1,0.44727 -1,1l0,78c0,0.55273 0.44776,1 1,1l22.55127,0c0.55225,0 1,-0.44727 1,-1zm-2,-77l0,45.625l-20.55127,0l0,-45.625l20.55127,0zm-20.55127,76l0,-28.375l20.55127,0l0,28.375l-20.55127,0z" class="" fill="#ffffff" fill-opacity="1"/>
  <path id="svg_9" d="m49.99951,31.12305c3.30127,0 5.98682,-2.68555 5.98682,-5.98633s-2.68555,-5.98633 -5.98682,-5.98633c-3.30078,0 -5.98633,2.68555 -5.98633,5.98633s2.68555,5.98633 5.98633,5.98633zm0,-9.97266c2.19824,0 3.98682,1.78809 3.98682,3.98633s-1.78858,3.98633 -3.98682,3.98633s-3.98633,-1.78809 -3.98633,-3.98633s1.78809,-3.98633 3.98633,-3.98633z" class="" fill="#ffffff" fill-opacity="1"/>
  <path id="svg_10" d="m44.99316,43.11035l10.01319,0c0.55224,0 1,-0.44726 1,-1s-0.44776,-1 -1,-1l-10.01319,0c-0.55224,0 -1,0.44727 -1,1s0.44776,1 1,1z" class="" fill="#ffffff" fill-opacity="1"/>
  <path id="svg_11" d="m44.99316,37.99609l10.01319,0c0.55224,0 1,-0.44726 1,-1s-0.44776,-1 -1,-1l-10.01319,0c-0.55224,0 -1,0.44727 -1,1s0.44776,1 1,1z" class="" fill="#ffffff" fill-opacity="1"/>
  <path id="svg_12" d="m89.99951,89l0,-78c0,-0.55273 -0.44775,-1 -1,-1l-22.55078,0c-0.55225,0 -1,0.44727 -1,1l0,78c0,0.55273 0.44775,1 1,1l22.55078,0c0.55225,0 1,-0.44727 1,-1zm-2,-77l0,45.625l-20.55078,0l0,-45.625l20.55078,0zm-20.55078,76l0,-28.375l20.55078,0l0,28.375l-20.55078,0z" class="" fill="#ffffff" fill-opacity="1"/>
  <path id="svg_13" d="m77.72412,31.12305c3.30078,0 5.98633,-2.68555 5.98633,-5.98633s-2.68555,-5.98633 -5.98633,-5.98633s-5.98633,2.68555 -5.98633,5.98633s2.68555,5.98633 5.98633,5.98633zm0,-9.97266c2.19824,0 3.98633,1.78809 3.98633,3.98633s-1.78809,3.98633 -3.98633,3.98633s-3.98633,-1.78809 -3.98633,-3.98633s1.78809,-3.98633 3.98633,-3.98633z" class="" fill="#ffffff" fill-opacity="1"/>
  <path id="svg_14" d="m72.71729,43.11035l10.01318,0c0.55224,0 1,-0.44726 1,-1s-0.44776,-1 -1,-1l-10.01318,0c-0.55225,0 -1,0.44727 -1,1s0.44775,1 1,1z" class="" fill="#ffffff" fill-opacity="1"/>
  <path id="svg_15" d="m72.71729,37.99609l10.01318,0c0.55224,0 1,-0.44726 1,-1s-0.44776,-1 -1,-1l-10.01318,0c-0.55225,0 -1,0.44727 -1,1s0.44775,1 1,1z" class="" fill="#ffffff" fill-opacity="1"/>
 </g>
</svg>