<svg xmlns="http://www.w3.org/2000/svg" xmlns:xlink="http://www.w3.org/1999/xlink" version="1.1" x="0px" y="0px" viewBox="0 0 100 125" style="enable-background:new 0 0 100 100;" xml:space="preserve"><path d="M36.2871094,57.1796875l5.387207,0.0332031l-2.7094727,18.0429688  c-0.0639648,0.4248047,0.1503906,0.8427734,0.5327148,1.0380859c0.1445312,0.0742188,0.3007812,0.1103516,0.4555664,0.1103516  c0.2553711,0,0.5073242-0.0976562,0.6987305-0.2841797l25.9467773-25.3095703  c0.2910156-0.2832031,0.3813477-0.7148438,0.2285156-1.0917969c-0.152832-0.3759766-0.5180664-0.6230469-0.9243164-0.6240234  l-10.6606445-0.0283203l6.9003906-16.2421875c0.1313477-0.3085938,0.0986328-0.6621094-0.0864258-0.9423828  s-0.4985352-0.4482422-0.8339844-0.4482422H39.0107422c-0.5083008,0-0.9355469,0.3808594-0.9936523,0.8867188l-2.7172852,23.7460938  c-0.0322266,0.28125,0.0571289,0.5644531,0.2456055,0.7763672C35.7333984,57.0556641,36.003418,57.1777344,36.2871094,57.1796875z   M39.902832,33.4335938h19.8081055L52.8120117,49.671875c-0.1308594,0.3076172-0.0986328,0.6611328,0.0859375,0.9414062  c0.184082,0.2792969,0.496582,0.4482422,0.8320312,0.4492188l9.7197266,0.0253906L41.3842773,72.6123047l2.4389648-16.2441406  c0.043457-0.2871094-0.0405273-0.578125-0.2290039-0.7988281c-0.1884766-0.2197266-0.4633789-0.3476562-0.753418-0.3496094  l-5.4272461-0.0332031L39.902832,33.4335938z"/><path d="M28.7680664,10c-0.5522461,0-1,0.4472656-1,1v3.2490234h-8.8017578c-0.5522461,0-1,0.4472656-1,1V89  c0,0.5527344,0.4477539,1,1,1h62.0673828c0.5522461,0,1-0.4472656,1-1V15.2490234c0-0.5527344-0.4477539-1-1-1h-8.8017578V11  c0-0.5527344-0.4477539-1-1-1s-1,0.4472656-1,1v3.2490234H58.0771484V11c0-0.5527344-0.4477539-1-1-1s-1,0.4472656-1,1v3.2490234  H43.9223633V11c0-0.5527344-0.4477539-1-1-1s-1,0.4472656-1,1v3.2490234H29.7680664V11  C29.7680664,10.4472656,29.3203125,10,28.7680664,10z M41.9223633,16.2490234v3.2480469c0,0.5527344,0.4477539,1,1,1  s1-0.4472656,1-1v-3.2480469h12.1547852v3.2480469c0,0.5527344,0.4477539,1,1,1s1-0.4472656,1-1v-3.2480469h12.1547852v3.2480469  c0,0.5527344,0.4477539,1,1,1s1-0.4472656,1-1v-3.2480469h7.8017578V88H19.9663086V16.2490234h7.8017578v3.2480469  c0,0.5527344,0.4477539,1,1,1s1-0.4472656,1-1v-3.2480469H41.9223633z"/><text x="0" y="115" fill="#000000" font-size="5px" font-weight="bold" font-family="'Helvetica Neue', Helvetica, Arial-Unicode, Arial, Sans-serif">Created by Made</text><text x="0" y="120" fill="#000000" font-size="5px" font-weight="bold" font-family="'Helvetica Neue', Helvetica, Arial-Unicode, Arial, Sans-serif">from the Noun Project</text></svg>