<svg xmlns="http://www.w3.org/2000/svg" xmlns:xlink="http://www.w3.org/1999/xlink" version="1.1" x="0px" y="0px" viewBox="0 0 100 125" style="enable-background:new 0 0 100 100;" xml:space="preserve"><path d="M63.3710938,39.9833984c-0.152832-0.3759766-0.5180664-0.6230469-0.9238281-0.6240234l-7.9311523-0.0214844  l5.2202148-12.2871094c0.1313477-0.3085938,0.0986328-0.6621094-0.0864258-0.9423828s-0.4985352-0.4482422-0.8339844-0.4482422  H41.5874023c-0.5083008,0-0.9355469,0.3808594-0.9936523,0.8867188l-2.1069336,18.4189453  c-0.0322266,0.2822266,0.0571289,0.5644531,0.2456055,0.7763672c0.1884766,0.2128906,0.4580078,0.3349609,0.7421875,0.3369141  l3.9189453,0.0234375l-2.0629883,13.7392578c-0.0639648,0.4248047,0.1503906,0.8427734,0.5327148,1.0380859  c0.1445312,0.0742188,0.3007812,0.1103516,0.4555664,0.1103516c0.2553711,0,0.5073242-0.0976562,0.6987305-0.2841797  l20.125-19.6308594C63.4335938,40.7919922,63.5239258,40.3603516,63.3710938,39.9833984z M43.75,57.1982422l1.7924805-11.9404297  c0.043457-0.2871094-0.0405273-0.578125-0.2290039-0.7988281s-0.4638672-0.3476562-0.7539062-0.3496094l-3.9589844-0.0234375  l1.8789062-16.4257812h14.8251953l-5.21875,12.2832031c-0.1308594,0.3076172-0.0986328,0.6611328,0.0859375,0.9414062  c0.184082,0.2792969,0.496582,0.4482422,0.8320312,0.4492188l6.9897461,0.0185547L43.75,57.1982422z"/><path d="M49.1977539,89.6962891c0.1884766,0.1982422,0.4501953,0.3105469,0.7236328,0.3105469c0.003418,0,0.0063477,0,0.0097656,0  c0.2768555-0.0029297,0.5405273-0.1201172,0.7275391-0.3242188c0.0693359-0.0751953,6.9960938-7.6630859,13.8261719-17.6699219  c9.230957-13.5244141,13.9116211-24.8056641,13.9116211-33.53125c0-15.7011719-12.7739258-28.4746094-28.4750977-28.4746094  S21.4462891,22.7802734,21.4462891,38.4814453c0,9.2060547,4.6816406,20.6347656,13.9155273,33.96875  C42.1958008,82.3193359,49.128418,89.6240234,49.1977539,89.6962891z M49.9213867,12.0068359  c14.5986328,0,26.4750977,11.8759766,26.4750977,26.4746094c0,18.0673828-22.1650391,44.1279297-26.4887695,49.0380859  c-4.3549805-4.7753906-26.4614258-29.9609375-26.4614258-49.0380859  C23.4462891,23.8828125,35.3227539,12.0068359,49.9213867,12.0068359z"/><text x="0" y="115" fill="#000000" font-size="5px" font-weight="bold" font-family="'Helvetica Neue', Helvetica, Arial-Unicode, Arial, Sans-serif">Created by Made</text><text x="0" y="120" fill="#000000" font-size="5px" font-weight="bold" font-family="'Helvetica Neue', Helvetica, Arial-Unicode, Arial, Sans-serif">from the Noun Project</text></svg>