<svg xmlns="http://www.w3.org/2000/svg" width="80" height="80"><rect id="backgroundrect" width="100%" height="100%" x="0" y="0" fill="none" stroke="none"/>

 <g style="">
  <title>background</title>
  <rect fill="none" id="canvas_background" height="82" width="82" y="-1" x="-1"/>
 </g>
 <g style="" class="currentLayer">
  <title>Layer 1</title>
  <g id="svg_1" class="selected" fill="#ffffff" fill-opacity="1">
   <path id="svg_2" d="m13.284,65.704l6.005,6.005c0.195,0.195 0.451,0.293 0.707,0.293c0.002,0 0.003,-0.001 0.005,-0.001c0.003,0 0.006,0.002 0.009,0.002l46,0c0.553,0 1,-0.447 1,-1l0,-55.999c0,-0.294 -0.132,-0.552 -0.333,-0.734l-5.979,-5.979c-0.092,-0.093 -0.203,-0.166 -0.326,-0.217c-0.122,-0.051 -0.252,-0.077 -0.382,-0.077l-46,0c-0.13,0 -0.26,0.026 -0.382,0.077c-0.245,0.102 -0.439,0.296 -0.541,0.541c-0.05,0.122 -0.077,0.252 -0.077,0.382l0,55.999c0,0.13 0.026,0.26 0.077,0.382c0.051,0.123 0.124,0.234 0.217,0.326zm46.292,-55.707l4.007,4.007l-43.172,0l-4.007,-4.007l43.172,0zm2.432,57.003l-37.994,0l0,-47.993l37.994,0l0,4.996l-1,0c-0.553,0 -1,0.447 -1,1l0,4c0,0.553 0.447,1 1,1l1,0l0,26.001l-1,0c-0.553,0 -1,0.447 -1,1l0,4c0,0.553 0.447,1 1,1l1,0l0,4.996zm3.002,-36.997l0,26.001l-1.002,0l0,-26.001l1.002,0zm0,-2l-3.002,0l0,-2l3.002,0l0,2zm-3.002,32.001l0,-2l3.002,0l0,2l-3.002,0zm-42.998,-44.573l0,53.171l-4.02,-4.02l0,-53.171l4.02,4.02zm2,54.572l0,-53.999l44,0l0,7.999l-1.002,0l0,-5.996c0,-0.553 -0.447,-1 -1,-1l-39.994,0c-0.553,0 -1,0.447 -1,1l0,49.993c0,0.553 0.447,1 1,1l39.994,0c0.553,0 1,-0.447 1,-1l0,-5.996l1.002,0l0,7.999l-44,0z" fill="#ffffff" fill-opacity="1"/>
   <path id="svg_3" d="m44.882,26.516c-0.352,-0.635 -1.396,-0.635 -1.748,0l-10.01,18.018c-0.172,0.31 -0.168,0.688 0.012,0.992c0.18,0.306 0.508,0.493 0.862,0.493l20.02,0c0.007,0 0.015,0 0.02,0c0.553,0 1,-0.447 1,-1c0,-0.243 -0.087,-0.467 -0.231,-0.64l-9.925,-17.863zm-9.185,17.503l8.311,-14.958l8.311,14.958l-16.622,0z" fill="#ffffff" fill-opacity="1"/>
   <path id="svg_4" d="m43.176,35.448l-2,3c-0.018,0.026 -0.02,0.056 -0.034,0.083c-0.032,0.06 -0.057,0.12 -0.076,0.187c-0.021,0.065 -0.034,0.13 -0.04,0.197c-0.003,0.03 -0.018,0.057 -0.018,0.088c0,0.033 0.016,0.061 0.019,0.093c0.007,0.069 0.02,0.135 0.041,0.201c0.019,0.061 0.041,0.116 0.07,0.172c0.029,0.055 0.063,0.104 0.104,0.154c0.043,0.054 0.09,0.102 0.145,0.146c0.024,0.02 0.039,0.048 0.066,0.066c0.034,0.022 0.072,0.032 0.107,0.051c0.034,0.017 0.066,0.034 0.103,0.048c0.112,0.041 0.228,0.069 0.344,0.069c0,0 0,0 0.001,0l0,0l1.132,0l-0.964,1.445c-0.307,0.46 -0.183,1.08 0.277,1.387c0.171,0.113 0.363,0.168 0.554,0.168c0.323,0 0.641,-0.156 0.833,-0.445l2,-3c0.018,-0.026 0.02,-0.056 0.034,-0.083c0.032,-0.06 0.057,-0.12 0.076,-0.187c0.021,-0.066 0.034,-0.13 0.04,-0.197c0.003,-0.03 0.018,-0.057 0.018,-0.088c0,-0.033 -0.016,-0.061 -0.019,-0.093c-0.007,-0.069 -0.02,-0.134 -0.041,-0.201c-0.019,-0.061 -0.041,-0.116 -0.07,-0.172s-0.063,-0.104 -0.104,-0.154c-0.044,-0.054 -0.091,-0.102 -0.146,-0.146c-0.024,-0.02 -0.039,-0.048 -0.066,-0.066c-0.025,-0.017 -0.056,-0.02 -0.082,-0.033c-0.061,-0.033 -0.123,-0.058 -0.19,-0.078c-0.064,-0.019 -0.126,-0.032 -0.192,-0.038c-0.031,-0.003 -0.058,-0.019 -0.09,-0.019l-1.132,0l0.964,-1.445c0.307,-0.46 0.183,-1.08 -0.277,-1.387c-0.462,-0.307 -1.083,-0.183 -1.387,0.277z" fill="#ffffff" fill-opacity="1"/>
   <path id="svg_5" d="m54.018,50.007l-20.02,0c-0.553,0 -1,0.447 -1,1s0.447,1 1,1l20.02,0c0.553,0 1,-0.447 1,-1s-0.448,-1 -1,-1z" fill="#ffffff" fill-opacity="1"/>
   <path id="svg_6" d="m54.018,53.006l-20.02,0c-0.553,0 -1,0.447 -1,1s0.447,1 1,1l20.02,0c0.553,0 1,-0.447 1,-1s-0.448,-1 -1,-1z" fill="#ffffff" fill-opacity="1"/>
   <path id="svg_7" d="m54.018,56.005l-20.02,0c-0.553,0 -1,0.447 -1,1s0.447,1 1,1l20.02,0c0.553,0 1,-0.447 1,-1s-0.448,-1 -1,-1z" fill="#ffffff" fill-opacity="1"/>
   <path id="svg_8" d="m27.506,41.003c-1.379,0 -2.5,1.121 -2.5,2.5s1.121,2.5 2.5,2.5s2.5,-1.121 2.5,-2.5s-1.121,-2.5 -2.5,-2.5zm0,3c-0.275,0 -0.5,-0.225 -0.5,-0.5s0.225,-0.5 0.5,-0.5s0.5,0.225 0.5,0.5s-0.225,0.5 -0.5,0.5z" fill="#ffffff" fill-opacity="1"/>
  </g>
 </g>
</svg>