<svg id="icons" enable-background="new 0 0 64 64" height="512" viewBox="0 0 64 64" width="512" xmlns="http://www.w3.org/2000/svg"><path d="m38.004 6.502c-.553 0-1-.447-1-1v-3c0-.553.447-1 1-1s1 .447 1 1v3c0 .553-.447 1-1 1z" fill="#aab2bd"/><path d="m34 6.502c-.553 0-1-.447-1-1v-3c0-.553.447-1 1-1s1 .447 1 1v3c0 .553-.447 1-1 1z" fill="#aab2bd"/><path d="m49.015 25.502c0-2.758-2.243-5-5-5-.018 0-.031.008-.049.01h-24.948c-1.654 0-3-1.346-3-3s1.346-3 3-3h13.002c.027 0 .051-.014.078-.016 2.72-.043 4.922-2.262 4.922-4.992 0-.553-.447-1-1-1s-1 .447-1 1c0 1.654-1.346 3-3 3-.014 0-.025.006-.039.008h-12.963c-2.757 0-5 2.242-5 5 0 2.756 2.241 4.996 4.996 5h.001 25.002c.011 0 .021-.006.031-.006 1.639.018 2.967 1.354 2.967 2.996l.001.002c0 .002-.001.004-.001.004v11.051c0 .553.447 1 1 1s1-.447 1-1v-11.049l-.001-.004z" fill="#545c66"/><path d="m57 59.498c0-1.1.9-2 2-2s2 .57 2 2v3h-12v-3c0-1.1.9-2 2-2s2 .9 2 2v-1c0-1.1.9-2 2-2s2 .9 2 2z" fill="#a0d468"/><path d="m11 59.498c0-1.1.9-2 2-2s2 .57 2 2v3h-12v-3c0-1.1.9-2 2-2s2 .9 2 2v-1c0-1.1.9-2 2-2s2 .9 2 2z" fill="#a0d468"/><path d="m39.004 4.502h-6c-.553 0-1 .447-1 1v1c0 2.205 1.794 4 4 4s4-1.795 4-4v-1c0-.553-.447-1-1-1z" fill="#656d78"/><g fill="#5d9cec"><path d="m52 38.498v4l-3-1.951-17-11.049-17 11.049-3 1.951v-4l20-13 17.02 11.059z"/><path d="m32 36.498c1.66 0 3 1.35 3 3 0 1.66-1.34 3-3 3s-3-1.34-3-3c0-1.65 1.34-3 3-3z"/><path d="m19 45.498h6v6h-6z"/><path d="m39 45.498h6v6h-6z"/></g><path d="m49 58.498v3h-14v-12h-6v12h-14v-3-17.951l17-11.049 17 11.049zm-4-7v-6h-6v6zm-10-12c0-1.65-1.34-3-3-3s-3 1.35-3 3c0 1.66 1.34 3 3 3s3-1.34 3-3zm-10 12v-6h-6v6z" fill="#e6e9ed"/><path d="m53 39.498c0-.035-.017-.064-.02-.098-.008-.068-.02-.133-.04-.199-.021-.063-.044-.119-.074-.174s-.063-.105-.104-.154c-.044-.053-.092-.1-.146-.143-.027-.021-.043-.051-.072-.07l-20-13c-.332-.215-.758-.215-1.09 0l-20 13c-.029.02-.045.049-.072.07-.054.043-.102.09-.146.143-.04.049-.074.1-.104.154-.03.055-.054.111-.073.174-.021.066-.033.131-.041.199-.001.034-.018.063-.018.098v3c0 .029.014.053.017.082.006.068.021.133.04.199.02.064.041.125.073.184.014.025.015.055.031.08.02.029.049.045.071.072.043.053.089.102.143.145.049.041.1.074.154.105.056.029.111.053.172.072.066.021.133.033.203.041.033.004.062.02.096.02.028 0 .053-.014.081-.018.069-.004.134-.02.201-.039.064-.02.124-.041.183-.072.025-.016.055-.016.08-.033l19.455-12.647 19.455 12.646c.033.021.069.031.104.049.031.016.062.031.096.043.113.041.229.07.345.07h.002c.118-.002.233-.029.345-.07.023-.01.047-.016.069-.027.101-.045.193-.105.275-.186.016-.014.026-.031.041-.047.037-.041.076-.078.106-.125.017-.025.018-.055.031-.08.032-.059.054-.119.073-.184.02-.066.034-.131.04-.199.004-.028.018-.052.018-.081z" fill="#5d9cec"/><path d="m25 51.998h-6c-.276 0-.5-.225-.5-.5v-6c0-.277.224-.5.5-.5h6c.276 0 .5.223.5.5v6c0 .275-.224.5-.5.5zm-5.5-1h5v-5h-5z" fill="#f5f7fa"/><path d="m45 51.998h-6c-.276 0-.5-.225-.5-.5v-6c0-.277.224-.5.5-.5h6c.276 0 .5.223.5.5v6c0 .275-.224.5-.5.5zm-5.5-1h5v-5h-5z" fill="#f5f7fa"/><path d="m32 42.998c-1.93 0-3.5-1.57-3.5-3.5s1.57-3.5 3.5-3.5 3.5 1.57 3.5 3.5-1.57 3.5-3.5 3.5zm0-6c-1.379 0-2.5 1.121-2.5 2.5s1.121 2.5 2.5 2.5 2.5-1.121 2.5-2.5-1.121-2.5-2.5-2.5z" fill="#f5f7fa"/><path d="m34.5 48.496c.55 0 1 .451 1 1v11.002c0 .549-.45 1-1 1h-5c-.55 0-1-.451-1-1v-11.002c0-.549.45-1 1-1z" fill="#545c66"/><path d="m63 62.498h-62c-.553 0-1-.447-1-1s.447-1 1-1h62c.553 0 1 .447 1 1s-.447 1-1 1z" fill="#656d78"/></svg>