<svg width="70" height="80" xmlns="http://www.w3.org/2000/svg">
 <g>
  <title>background</title>
  <rect x="-1" y="-1" width="72" height="82" id="canvas_background" fill="none"/>
 </g>

 <g>
  <title>Layer 1</title>
  <g id="svg_1">
   <path d="m22,60.4975l6,0c0.553,0 1,-0.447 1,-1l0,-6c0,-0.553 -0.447,-1 -1,-1l-6,0c-0.553,0 -1,0.447 -1,1l0,6c0,0.553 0.447,1 1,1zm1,-6l4,0l0,4l-4,0l0,-4z" id="svg_2"/>
   <path d="m42,60.4975l6,0c0.553,0 1,-0.447 1,-1l0,-6c0,-0.553 -0.447,-1 -1,-1l-6,0c-0.553,0 -1,0.447 -1,1l0,6c0,0.553 0.447,1 1,1zm1,-6l4,0l0,4l-4,0l0,-4z" id="svg_3"/>
   <path d="m35,51.4975c2.206,0 4,-1.794 4,-4s-1.794,-4 -4,-4s-4,1.794 -4,4s1.794,4 4,4zm0,-6c1.103,0 2,0.897 2,2s-0.897,2 -2,2s-2,-0.897 -2,-2s0.897,-2 2,-2z" id="svg_4"/>
   <path d="m66,68.4975l-1,0l0,-2c0,-1.822 -1.177,-3 -2.999,-3c-0.535,0 -1.037,0.141 -1.473,0.387c-0.533,-0.833 -1.468,-1.387 -2.528,-1.387s-1.995,0.554 -2.528,1.387c-0.436,-0.246 -0.938,-0.387 -1.473,-0.387c-0.352,0 -0.685,0.072 -0.999,0.184l0,-13.291l1.455,0.946c0.033,0.021 0.069,0.03 0.104,0.048c0.031,0.016 0.062,0.031 0.096,0.044c0.113,0.041 0.229,0.069 0.345,0.069l0,0l0,0c0,0 0.001,0 0.002,0c0.118,-0.001 0.233,-0.028 0.345,-0.07c0.023,-0.009 0.047,-0.016 0.069,-0.026c0.101,-0.046 0.193,-0.106 0.275,-0.186c0.016,-0.015 0.026,-0.032 0.041,-0.048c0.037,-0.04 0.076,-0.078 0.106,-0.125c0.017,-0.025 0.018,-0.054 0.031,-0.08c0.032,-0.059 0.054,-0.119 0.073,-0.184c0.02,-0.066 0.034,-0.131 0.04,-0.198c0.004,-0.029 0.018,-0.054 0.018,-0.083l0,-4c0,-0.035 -0.017,-0.064 -0.02,-0.099c-0.008,-0.068 -0.02,-0.133 -0.04,-0.199c-0.021,-0.062 -0.044,-0.118 -0.074,-0.174c-0.03,-0.055 -0.063,-0.104 -0.104,-0.153c-0.044,-0.054 -0.092,-0.1 -0.146,-0.144c-0.027,-0.021 -0.043,-0.051 -0.072,-0.07l-2.529,-1.644l0,-10.505c0,-0.001 -0.001,-0.003 -0.001,-0.004s0.001,-0.003 0.001,-0.004c0,-2.757 -2.243,-5 -5,-5c-0.018,0 -0.031,0.009 -0.049,0.01l-25.948,0c-1.654,0 -3,-1.346 -3,-3s1.346,-3 3,-3l13.002,0c0.027,0 0.051,-0.014 0.078,-0.016c2.42,-0.038 4.42,-1.801 4.833,-4.113c1.759,-0.421 3.073,-1.995 3.073,-3.881l0,-2c0,-0.553 -0.447,-1 -1,-1l0,-1c0,-0.553 -0.447,-1 -1,-1s-1,0.447 -1,1l0,1l-2.004,0l0,-1c0,-0.553 -0.447,-1 -1,-1s-1,0.447 -1,1l0,1.001c-0.551,0.002 -0.996,0.447 -0.996,0.999l0,2c0,1.817 1.225,3.337 2.887,3.823c-0.359,1.253 -1.504,2.179 -2.871,2.179c-0.014,0 -0.025,0.007 -0.039,0.008l-12.963,0c-2.757,0 -5,2.243 -5,5c0,2.756 2.241,4.997 4.996,5c0.001,0 0.001,0 0.002,0l26.002,0c0.012,0 0.021,-0.006 0.031,-0.006c1.639,0.018 2.967,1.354 2.967,2.996c0,0.001 0.001,0.003 0.001,0.004s-0.001,0.003 -0.001,0.004l0,9.205l-15.471,-10.056c-0.332,-0.215 -0.758,-0.215 -1.09,0l-20,13c-0.029,0.02 -0.045,0.049 -0.072,0.07c-0.054,0.044 -0.102,0.09 -0.146,0.144c-0.04,0.049 -0.074,0.099 -0.104,0.153c-0.03,0.056 -0.054,0.112 -0.073,0.174c-0.021,0.066 -0.033,0.131 -0.041,0.199c-0.002,0.035 -0.019,0.064 -0.019,0.099l0,4c0,0.029 0.014,0.054 0.017,0.083c0.006,0.067 0.021,0.132 0.04,0.198c0.02,0.064 0.041,0.125 0.073,0.184c0.014,0.026 0.015,0.055 0.031,0.08c0.02,0.029 0.049,0.045 0.071,0.072c0.043,0.054 0.089,0.102 0.143,0.146c0.049,0.04 0.1,0.074 0.154,0.104c0.056,0.029 0.111,0.053 0.172,0.072c0.066,0.021 0.133,0.034 0.203,0.041c0.033,0.004 0.062,0.02 0.096,0.02c0.028,0 0.053,-0.014 0.081,-0.017c0.069,-0.005 0.134,-0.021 0.201,-0.04c0.064,-0.02 0.124,-0.041 0.183,-0.072c0.025,-0.015 0.055,-0.016 0.08,-0.032l1.455,-0.946l0,13.256c-0.308,-0.09 -0.637,-0.148 -0.999,-0.148c-0.535,0 -1.037,0.141 -1.473,0.387c-0.533,-0.833 -1.468,-1.387 -2.528,-1.387s-1.995,0.554 -2.528,1.387c-0.436,-0.246 -0.938,-0.387 -1.473,-0.387c-1.653,0 -2.999,1.346 -2.999,3l0,2l-1,0c-0.553,0 -1,0.447 -1,1s0.447,1 1,1l62,0c0.553,0 1,-0.447 1,-1s-0.447,-1.001 -1,-1.001zm-28.996,-53.996l0,-1l4,0l0,1c0,1.103 -0.897,2 -2,2s-2,-0.898 -2,-2zm16.995,50.996c0.553,0 1.002,0.448 1.002,1c0,0.553 0.447,1 1,1s1,-0.447 1,-1l0,-1.002c0,-0.551 0.448,-0.998 0.999,-0.998s0.999,0.447 0.999,0.998l0,1.002c0,0.553 0.447,1 1,1s1,-0.447 1,-1c0,-0.552 0.449,-1 1.002,-1c0.829,0 0.999,0.399 0.999,1l0,2l-10,0l0,-2c0,-0.552 0.448,-1 0.999,-1zm-18.999,-30.808l19,12.351l0,1.614l-18.455,-11.996c-0.332,-0.215 -0.758,-0.215 -1.09,0l-18.455,11.996l0,-1.614l19,-12.351zm0,4l16,10.4l0,17.407l0,2l-12,0l0,-11c0,-0.553 -0.447,-1 -1,-1l-6,0c-0.553,0 -1,0.447 -1,1l0,11l-12,0l0,-2l0,-17.406l16,-10.401zm-2,19.808l4,0l0,10l-4,0l0,-10zm-26,8c0,-0.552 0.448,-1 0.999,-1c0.553,0 1.002,0.448 1.002,1c0,0.553 0.447,1 1,1s1,-0.447 1,-1l0,-1.002c0,-0.551 0.448,-0.998 0.999,-0.998s0.999,0.447 0.999,0.998l0,1.002c0,0.553 0.447,1 1,1s1,-0.447 1,-1c0,-0.552 0.449,-1 1.002,-1c0.829,0 0.999,0.399 0.999,1l0,2l-10,0l0,-2z" id="svg_5"/>
  </g>
 </g>
</svg>