<svg xmlns="http://www.w3.org/2000/svg" xmlns:xlink="http://www.w3.org/1999/xlink" version="1.1" x="0px" y="0px" viewBox="0 0 64 80" enable-background="new 0 0 64 64" xml:space="preserve"><g><path d="M63.092,17.004c0.553,0,1-0.447,1-1s-0.447-1-1-1H37.505l-0.103-1.006h9.674V14c0,0.553,0.447,1,1,1s1-0.447,1-1v-1.002   c0-0.002-0.001-0.004-0.001-0.006c-0.001-0.123-0.028-0.241-0.071-0.354c-0.051-0.131-0.123-0.251-0.221-0.348   c-0.001-0.001-0.002-0.002-0.003-0.003c-0.092-0.091-0.201-0.163-0.322-0.213c-0.003-0.001-0.004-0.003-0.006-0.004l-11.729-4.76   l-0.651-6.413c-0.006-0.057-0.033-0.104-0.047-0.157c-0.016-0.057-0.025-0.113-0.05-0.165c-0.035-0.075-0.084-0.137-0.135-0.199   c-0.028-0.035-0.051-0.071-0.083-0.103c-0.057-0.053-0.123-0.09-0.191-0.128c-0.047-0.027-0.089-0.057-0.141-0.076   c-0.06-0.021-0.125-0.028-0.19-0.038C35.181,0.023,35.133,0,35.076,0h-3.998c-0.058,0-0.106,0.023-0.161,0.032   c-0.062,0.011-0.123,0.016-0.181,0.036c-0.06,0.022-0.111,0.057-0.165,0.09c-0.059,0.034-0.115,0.065-0.165,0.11   c-0.042,0.038-0.071,0.084-0.106,0.129c-0.043,0.056-0.086,0.109-0.117,0.174c-0.026,0.056-0.038,0.116-0.054,0.178   c-0.014,0.051-0.04,0.095-0.046,0.149l-0.651,6.413L17.7,12.071c-0.002,0.001-0.003,0.003-0.006,0.004   c-0.262,0.108-0.458,0.327-0.553,0.598c-0.035,0.103-0.063,0.208-0.064,0.318c0,0.003-0.001,0.005-0.001,0.007V14   c0,0.553,0.447,1,1,1s1-0.447,1-1v-0.002h9.676l-0.103,1.006H1.092c-0.553,0-1,0.447-1,1s0.447,1,1,1h27.354l-0.128,1.261   l-17.542,5.796c-0.013,0.004-0.021,0.015-0.034,0.02c-0.07,0.026-0.129,0.067-0.19,0.108c-0.048,0.031-0.1,0.057-0.141,0.095   c-0.048,0.045-0.081,0.101-0.119,0.154c-0.037,0.051-0.078,0.097-0.104,0.154c-0.024,0.054-0.032,0.112-0.048,0.171   c-0.018,0.069-0.039,0.135-0.042,0.207c0,0.015-0.008,0.026-0.008,0.04V26c0,0.553,0.447,1,1,1c0.549,0,0.992-0.442,0.998-0.99   h15.443L27.431,27H11.09H0.908c-0.553,0-1,0.447-1,1s0.447,1,1,1h26.319l-0.146,1.435l-9.521,5.73   c-0.033,0.021-0.053,0.053-0.084,0.076c-0.056,0.043-0.107,0.087-0.153,0.141c-0.041,0.049-0.073,0.1-0.104,0.154   c-0.031,0.056-0.059,0.11-0.079,0.172c-0.022,0.065-0.032,0.131-0.041,0.2c-0.004,0.039-0.022,0.073-0.022,0.113V38   c0,0.553,0.447,1,1,1c0.545,0,0.983-0.437,0.996-0.979h7.238L26.211,39h-8.135H1.092c-0.553,0-1,0.447-1,1s0.447,1,1,1h24.916   l-1.83,18h-3.086c-0.553,0-1,0.447-1,1v2h-2.998c-0.553,0-1,0.447-1,1s0.447,1,1,1h3.998h24h3.969c0.553,0,1-0.447,1-1   s-0.447-1-1-1h-2.969v-2c0-0.553-0.447-1-1-1h-3.115l-1.83-18h22.945c0.553,0,1-0.447,1-1s-0.447-1-1-1H48.076h-8.133l-0.1-0.979   h7.236C47.093,38.563,47.531,39,48.076,39c0.553,0,1-0.447,1-1v-0.979c0-0.041-0.019-0.075-0.023-0.114   c-0.008-0.068-0.018-0.134-0.04-0.199c-0.021-0.063-0.049-0.117-0.081-0.174c-0.03-0.054-0.062-0.104-0.103-0.152   c-0.046-0.054-0.098-0.098-0.153-0.141c-0.031-0.023-0.051-0.057-0.085-0.077l-9.517-5.719l-0.146-1.43h24.163c0.553,0,1-0.447,1-1   s-0.447-1-1-1H38.726l-0.103-1.006h15.463c0.006,0.548,0.449,0.99,0.998,0.99c0.553,0,1-0.447,1-1v-0.99   c0-0.014-0.008-0.025-0.008-0.04c-0.003-0.072-0.023-0.138-0.042-0.207c-0.016-0.058-0.023-0.117-0.048-0.171   c-0.026-0.058-0.067-0.104-0.104-0.154c-0.039-0.054-0.072-0.109-0.12-0.154c-0.041-0.038-0.093-0.063-0.141-0.095   c-0.062-0.041-0.12-0.083-0.19-0.108c-0.013-0.005-0.021-0.016-0.034-0.02l-17.562-5.796l-0.128-1.261H63.092z M38.342,43.023   h-7.942l7.499-4.365L38.342,43.023z M31.982,2h2.189l0.158,1.55l-2.729,2.197L31.982,2z M34.681,6.998h-1.443l1.334-1.074   L34.681,6.998z M33.05,8.998l-1.948,1.667l0.169-1.667H33.05z M34.983,9.976l0.205,2.022H32.62L34.983,9.976z M30.763,13.998h2.819   l-3.087,2.633L30.763,13.998z M29.542,26.01h4.533l-4.846,3.076L29.542,26.01z M28.607,35.204l0.325-3.202l5.353,0.012   L28.607,35.204z M37.284,32.623l0.346,3.398h-6.393L37.284,32.623z M28.321,38.021h6.696L27.9,42.164L28.321,38.021z    M27.609,45.023h8.169l-8.688,5.115L27.609,45.023z M39.152,51.002h-9.589l9.048-5.326L39.152,51.002z M26.799,53.002h9.417   l-9.95,5.244L26.799,53.002z M37.02,30.02l-5.511-0.012l5.176-3.286L37.02,30.02z M31.717,24.01l4.37-3.171l0.322,3.171H31.717z    M29.859,22.887l0.292-2.877h3.673L29.859,22.887z M31.961,18.01l3.532-3.013L35.8,18.01H31.961z M42.952,11.998h-5.753   l-0.247-2.436L42.952,11.998z M23.201,11.998l6.001-2.435l-0.247,2.435H23.201z M17.303,24.01l10.794-3.566l-0.362,3.566H17.303z    M21.676,36.021l5.153-3.102l-0.315,3.102H21.676z M44.092,62h-22v-1h22V62z M29.124,59l10.29-5.423L39.965,59H29.124z    M44.471,36.021h-4.83l-0.314-3.091L44.471,36.021z M48.864,24.01H38.42l-0.362-3.566L48.864,24.01z"/></g><text x="0" y="79" fill="#000000" font-size="5px" font-weight="bold" font-family="'Helvetica Neue', Helvetica, Arial-Unicode, Arial, Sans-serif">Created by lastspark</text><text x="0" y="84" fill="#000000" font-size="5px" font-weight="bold" font-family="'Helvetica Neue', Helvetica, Arial-Unicode, Arial, Sans-serif">from the Noun Project</text></svg>