<svg width="100" height="100" xmlns="http://www.w3.org/2000/svg">

 <g>
  <title>background</title>
  <rect  fill="none" id="canvas_background" height="102" width="102" y="-1" x="-1"/>
 </g>
 <g>
  <title>Layer 1</title>
  <path  id="svg_1" d="m42.86579,67.78809c0.18848,0.21289 0.45801,0.33496 0.74219,0.33691l1.66748,0.00977l-1.07129,7.14648c-0.06396,0.4248 0.15088,0.84277 0.5332,1.03906c0.14454,0.07324 0.3003,0.10938 0.45508,0.10938c0.25586,0 0.50782,-0.09766 0.69922,-0.28418l11.19336,-10.9336c0.29053,-0.28418 0.38037,-0.71582 0.22803,-1.09179c-0.15283,-0.37598 -0.51807,-0.62305 -0.92432,-0.62403l-3.74316,-0.00976l2.64258,-6.22852c0.13134,-0.30859 0.09863,-0.66308 -0.08643,-0.94238c-0.18555,-0.28027 -0.49854,-0.44824 -0.83398,-0.44824l-9.58155,0c-0.5083,0 -0.93603,0.38183 -0.99365,0.88672l-1.17236,10.25781c-0.03223,0.28223 0.05713,0.56445 0.2456,0.77637zm2.8125,-9.9209l7.17871,0l-2.64062,6.22461c-0.13086,0.30859 -0.09863,0.66211 0.08594,0.9414s0.49707,0.44825 0.83203,0.44922l2.80371,0.00684l-7.31494,7.14551l0.80127,-5.34473c0.04297,-0.28711 -0.04053,-0.57813 -0.22901,-0.79883c-0.18896,-0.2207 -0.46386,-0.34766 -0.7539,-0.34961l-1.70752,-0.00976l0.94433,-8.26465z"/>
  <path  id="svg_2" d="m89,41.70215l-9.13232,0l0,-4.15527l3.02099,0c0.32227,0 0.625,-0.15528 0.8125,-0.417c0.18799,-0.26269 0.23828,-0.59863 0.13477,-0.90429l-1.86603,-5.50391l0.91876,0c0.32227,0 0.625,-0.15527 0.8125,-0.41699c0.18799,-0.2627 0.23828,-0.59864 0.13477,-0.9043l-1.86603,-5.50391l0.91876,0c0.32227,0 0.625,-0.15527 0.8125,-0.41699c0.18799,-0.26269 0.23828,-0.59863 0.13477,-0.90429l-2.31397,-6.8252c-0.13769,-0.40527 -0.51855,-0.67871 -0.94726,-0.67871l-2.79737,0l0,-4.07129c0,-0.55273 -0.44775,-1 -1,-1l-5.34863,0c-0.55225,0 -1,0.44727 -1,1l0,4.07129l-2.79736,0c-0.42871,0 -0.80957,0.27344 -0.94727,0.67871l-2.31396,6.8252c-0.10352,0.30566 -0.05323,0.6416 0.13476,0.90429c0.1875,0.26172 0.49024,0.41699 0.8125,0.41699l0.91877,0l-1.86603,5.50391c-0.10352,0.30566 -0.05323,0.6416 0.13476,0.9043c0.1875,0.26172 0.49024,0.41699 0.8125,0.41699l0.91877,0l-1.86603,5.50391c-0.10352,0.30566 -0.05323,0.6416 0.13476,0.90429c0.1875,0.26172 0.49024,0.417 0.8125,0.417l3.021,0l0,4.15527l-12.57373,0l0,-4.15527l3.02099,0c0.32227,0 0.625,-0.15528 0.8125,-0.417c0.18799,-0.26269 0.23829,-0.59863 0.13477,-0.90429l-1.86603,-5.50391l0.91876,0c0.32227,0 0.625,-0.15527 0.8125,-0.41699c0.18799,-0.2627 0.23829,-0.59864 0.13477,-0.9043l-1.86603,-5.50391l0.91876,0c0.32227,0 0.625,-0.15527 0.8125,-0.41699c0.18799,-0.26269 0.23829,-0.59863 0.13477,-0.90429l-2.31396,-6.8252c-0.1377,-0.40527 -0.51856,-0.67871 -0.94727,-0.67871l-2.79736,0l0,-4.07129c0,-0.55273 -0.44776,-1 -1,-1l-5.34864,0c-0.55224,0 -1,0.44727 -1,1l0,4.07129l-2.79736,0c-0.42871,0 -0.80957,0.27344 -0.94727,0.67871l-2.31396,6.8252c-0.10352,0.30566 -0.05322,0.6416 0.13477,0.90429c0.1875,0.26172 0.49023,0.41699 0.8125,0.41699l0.91876,0l-1.86603,5.50391c-0.10352,0.30566 -0.05322,0.6416 0.13477,0.9043c0.1875,0.26172 0.49023,0.41699 0.8125,0.41699l0.91876,0l-1.86603,5.50391c-0.10352,0.30566 -0.05322,0.6416 0.13477,0.90429c0.1875,0.26172 0.49023,0.417 0.8125,0.417l3.02099,0l0,4.15527l-12.57373,0l0,-4.15527l3.021,0c0.32226,0 0.625,-0.15528 0.8125,-0.417c0.18799,-0.26269 0.23828,-0.59863 0.13476,-0.90429l-1.86602,-5.50391l0.91876,0c0.32226,0 0.625,-0.15527 0.8125,-0.41699c0.18799,-0.2627 0.23828,-0.59864 0.13476,-0.9043l-1.86602,-5.50391l0.91876,0c0.32226,0 0.625,-0.15527 0.8125,-0.41699c0.18799,-0.26269 0.23828,-0.59863 0.13476,-0.90429l-2.31396,-6.8252c-0.1377,-0.40527 -0.51856,-0.67871 -0.94727,-0.67871l-2.79736,0l0,-4.07129c0,-0.55273 -0.44775,-1 -1,-1l-5.34863,0c-0.55225,0 -1,0.44727 -1,1l0,4.07129l-2.79737,0c-0.42871,0 -0.80957,0.27344 -0.94726,0.67871l-2.31397,6.8252c-0.10351,0.30566 -0.05322,0.6416 0.13477,0.90429c0.1875,0.26172 0.49023,0.41699 0.8125,0.41699l0.91876,0l-1.86603,5.50391c-0.10351,0.30566 -0.05322,0.6416 0.13477,0.9043c0.1875,0.26172 0.49023,0.41699 0.8125,0.41699l0.91876,0l-1.86603,5.50391c-0.10351,0.30566 -0.05322,0.6416 0.13477,0.90429c0.1875,0.26172 0.49023,0.417 0.8125,0.417l3.02099,0l0,4.15527l-9.13232,0c-0.55225,0 -1,0.44726 -1,1l0,7.70801c0,0.55273 0.44775,1 1,1l1.02686,0l0,28.88183l-1.02686,0c-0.55225,0 -1,0.44727 -1,1l0,7.70801c0,0.55273 0.44775,1 1,1l78,0c0.55225,0 1,-0.44727 1,-1l0,-7.70801c0,-0.55273 -0.44775,-1 -1,-1l-1.02686,0l0,-28.88183l1.02686,0c0.55225,0 1,-0.44727 1,-1l0,-7.70801c0,-0.55274 -0.44775,-1 -1,-1zm-16.57129,-29.70215l3.34863,0l0,3.07129l-3.34863,0l0,-3.07129zm-4.08057,5.07129l11.50977,0l1.63574,4.82519l-0.91894,0l-12.94336,0l-0.91895,0l1.63574,-4.82519zm11.50977,6.82519l1.63574,4.8252l-0.91894,0l-12.94336,0l-0.91895,0l1.63574,-4.8252l11.50977,0zm-11.50977,6.8252l11.50977,0l1.63574,4.8252l-14.78125,0l1.63574,-4.8252zm1.99024,6.8252l7.5293,0l0,4.15527l-7.5293,0l0,-4.15527zm-22.0127,-25.54688l3.34864,0l0,3.07129l-3.34864,0l0,-3.07129zm-4.08056,5.07129l11.50976,0l1.63575,4.82519l-0.91895,0l-12.94336,0l-0.91894,0l1.63574,-4.82519zm11.50976,6.82519l1.63575,4.8252l-0.91895,0l-12.94336,0l-0.91894,0l1.63574,-4.8252l11.50976,0zm-11.50976,6.8252l11.50976,0l1.63575,4.8252l-14.78125,0l1.63574,-4.8252zm1.99023,6.8252l7.5293,0l0,4.15527l-7.5293,0l0,-4.15527zm-22.01269,-25.54688l3.34863,0l0,3.07129l-3.34863,0l0,-3.07129zm-4.08057,5.07129l11.50977,0l1.63574,4.82519l-0.91895,0l-12.94336,0l-0.91894,0l1.63574,-4.82519zm11.50977,6.82519l1.63574,4.8252l-0.91895,0l-12.94336,0l-0.91894,0l1.63574,-4.8252l11.50977,0zm-11.50977,6.8252l11.50977,0l1.63574,4.8252l-14.78125,0l1.63574,-4.8252zm1.99023,6.8252l7.5293,0l0,4.15527l-7.5293,0l0,-4.15527zm65.86768,50.45312l-76,0l0,-5.70801l76,0l0,5.70801zm-2.02686,-7.70801l-71.94628,0l0,-28.88183l71.94628,0l0,28.88183zm2.02686,-30.88183l-76,0l0,-5.70801l76,0l0,5.70801z"/>
 </g>
</svg>