<svg width="100" height="100" xmlns="http://www.w3.org/2000/svg">

 <g>
  <title>background</title>
  <rect fill="none" id="canvas_background" height="102" width="102" y="-1" x="-1"/>
 </g>
 <g>
  <title>Layer 1</title>
  <path id="svg_1" d="m41.22754,52.74414l2.98437,0.01856l-1.65234,11c-0.06348,0.4248 0.15137,0.84277 0.5332,1.03808c0.14453,0.07422 0.30078,0.11035 0.45606,0.11035c0.25488,0 0.50683,-0.09765 0.69824,-0.28418l16.4209,-16.01757c0.29101,-0.28321 0.38086,-0.71485 0.22851,-1.0918c-0.15234,-0.37598 -0.51757,-0.62305 -0.92382,-0.62403l-6.19336,-0.0166l4.14941,-9.76953c0.13184,-0.30859 0.09961,-0.66211 -0.08594,-0.94238s-0.49804,-0.44824 -0.83398,-0.44824l-14.05664,0c-0.50879,0 -0.93555,0.38086 -0.99317,0.88672l-1.71875,15.02734c-0.03222,0.28223 0.05664,0.56445 0.24512,0.77637c0.18848,0.21289 0.45801,0.33496 0.74219,0.33691zm2.61719,-15.02734l11.65234,0l-4.14746,9.76562c-0.13184,0.30762 -0.09961,0.66211 0.08496,0.94141s0.49707,0.44824 0.83203,0.44922l5.25293,0.01367l-12.54004,12.23242l1.38184,-9.20117c0.04297,-0.28711 -0.04102,-0.57813 -0.22949,-0.79883c-0.18848,-0.21973 -0.46387,-0.34766 -0.75391,-0.34961l-3.02441,-0.01855l1.49121,-13.03418z"/>
  <path id="svg_2" d="m77.87042,37.88086c0.47949,2.89386 2.99237,5.10937 6.02021,5.10937c3.36914,0 6.10937,-2.74023 6.10937,-6.10937s-2.74023,-6.10938 -6.10937,-6.10938c-3.02784,0 -5.54072,2.21552 -6.02021,5.10938l-6.12042,0l0,-6.63086c0,-0.55273 -0.44727,-1 -1,-1l-6.63086,0l0,-6.12042c2.89386,-0.47949 5.10938,-2.99237 5.10938,-6.0202c0,-3.36915 -2.74024,-6.10938 -6.10938,-6.10938s-6.10937,2.74023 -6.10937,6.10938c0,3.02783 2.21551,5.54071 5.10937,6.0202l0,6.12042l-11.11914,0l0,-10.5c0,-0.55273 -0.44727,-1 -1,-1s-1,0.44727 -1,1l0,10.5l-11.11914,0l0,-6.12042c2.89386,-0.47949 5.10937,-2.99237 5.10937,-6.0202c0,-3.36915 -2.74023,-6.10938 -6.10937,-6.10938s-6.10938,2.74023 -6.10938,6.10938c0,3.02783 2.21552,5.54071 5.10938,6.0202l0,6.12042l-6.63086,0c-0.55273,0 -1,0.44727 -1,1l0,6.63086l-6.12042,0c-0.47949,-2.89386 -2.99237,-5.10938 -6.0202,-5.10938c-3.36915,0 -6.10938,2.74024 -6.10938,6.10938s2.74023,6.10937 6.10938,6.10937c3.02783,0 5.54071,-2.21551 6.0202,-5.10937l6.12042,0l0,11.11914l-10.5,0c-0.55273,0 -1,0.44727 -1,1s0.44727,1 1,1l10.5,0l0,11.11914l-6.12042,0c-0.47949,-2.89386 -2.99237,-5.10937 -6.0202,-5.10937c-3.36915,0 -6.10938,2.74023 -6.10938,6.10937s2.74023,6.10938 6.10938,6.10938c3.02783,0 5.54071,-2.21552 6.0202,-5.10938l6.12042,0l0,6.63086c0,0.55273 0.44727,1 1,1l6.63086,0l0,6.12042c-2.89386,0.47949 -5.10938,2.99237 -5.10938,6.02021c0,3.36914 2.74024,6.10937 6.10938,6.10937s6.10937,-2.74023 6.10937,-6.10937c0,-3.02784 -2.21551,-5.54072 -5.10937,-6.02021l0,-6.12042l11.11914,0l0,10.5c0,0.55273 0.44727,1 1,1s1,-0.44727 1,-1l0,-10.5l11.11914,0l0,6.12042c-2.89386,0.47949 -5.10937,2.99237 -5.10937,6.02021c0,3.36914 2.74023,6.10937 6.10937,6.10937s6.10938,-2.74023 6.10938,-6.10937c0,-3.02784 -2.21552,-5.54072 -5.10938,-6.02021l0,-6.12042l6.63086,0c0.55273,0 1,-0.44727 1,-1l0,-6.63086l6.12042,0c0.47949,2.89386 2.99237,5.10938 6.02021,5.10938c3.36914,0 6.10937,-2.74024 6.10937,-6.10938s-2.74023,-6.10937 -6.10937,-6.10937c-3.02784,0 -5.54072,2.21551 -6.02021,5.10937l-6.12042,0l0,-11.11914l10.5,0c0.55273,0 1,-0.44727 1,-1s-0.44727,-1 -1,-1l-10.5,0l0,-11.11914l6.12042,0zm6.02021,-5.10938c2.26562,0 4.10937,1.84375 4.10937,4.10938s-1.84375,4.10937 -4.10937,4.10937s-4.10938,-1.84375 -4.10938,-4.10937s1.84375,-4.10938 4.10938,-4.10938zm-24.88086,-16.6621c0,-2.26563 1.84375,-4.10938 4.10937,-4.10938s4.10938,1.84375 4.10938,4.10938s-1.84375,4.10937 -4.10938,4.10937s-4.10937,-1.84375 -4.10937,-4.10937zm-26.23829,0c0,-2.26563 1.84375,-4.10938 4.10938,-4.10938s4.10937,1.84375 4.10937,4.10938s-1.84375,4.10937 -4.10937,4.10937s-4.10938,-1.84375 -4.10938,-4.10937zm-16.6621,24.88085c-2.26563,0 -4.10938,-1.84375 -4.10938,-4.10937s1.84375,-4.10938 4.10938,-4.10938s4.10937,1.84375 4.10937,4.10938s-1.84375,4.10937 -4.10937,4.10937zm0,26.23829c-2.26563,0 -4.10938,-1.84375 -4.10938,-4.10938s1.84375,-4.10937 4.10938,-4.10937s4.10937,1.84375 4.10937,4.10937s-1.84375,4.10938 -4.10937,4.10938zm24.88085,16.66211c0,2.26562 -1.84375,4.10937 -4.10937,4.10937s-4.10938,-1.84375 -4.10938,-4.10937s1.84375,-4.10938 4.10938,-4.10938s4.10937,1.84375 4.10937,4.10938zm26.23829,0c0,2.26562 -1.84375,4.10937 -4.10938,4.10937s-4.10937,-1.84375 -4.10937,-4.10937s1.84375,-4.10938 4.10937,-4.10938s4.10938,1.84375 4.10938,4.10938zm16.66211,-24.88086c2.26562,0 4.10937,1.84375 4.10937,4.10937s-1.84375,4.10938 -4.10937,4.10938s-4.10938,-1.84375 -4.10938,-4.10938s1.84375,-4.10937 4.10938,-4.10937zm-14.14063,10.74023l-39.5,0l0,-39.5l39.5,0l0,39.5z"/>
 </g>
</svg>