<svg xmlns="http://www.w3.org/2000/svg" width="100" height="100" style=""><rect id="backgroundrect" width="100%" height="100%" x="0" y="0" fill="none" stroke="none"/>
 <style type="text/css">.st0{fill:none;stroke:#000000;stroke-width:2;stroke-linecap:round;stroke-linejoin:round;stroke-miterlimit:10;}</style>

 <g style="">
  <title>background</title>
  <rect fill="none" id="canvas_background" height="102" width="102" y="-1" x="-1"/>
 </g>
 <g style="" class="currentLayer">
  <title>Layer 1</title>
  <path id="svg_1" d="m41.09339,57.3c0.2,0.3 0.5,0.4 0.8,0.4c0.2,0 0.4,-0.1 0.6,-0.2l12.4,-8.3c0.3,-0.2 0.5,-0.5 0.4,-0.9c0,-0.4 -0.2,-0.7 -0.6,-0.8l-10.5,-4.9l10.6,-6.1c0.5,-0.3 0.6,-0.9 0.4,-1.4c-0.3,-0.5 -0.9,-0.6 -1.4,-0.4l-12.3,7c-0.3,0.2 -0.5,0.5 -0.5,0.9c0,0.4 0.2,0.7 0.6,0.9l10.7,5l-10.9,7.3c-0.5,0.4 -0.7,1.1 -0.3,1.5z" class="" fill="#ffffff" fill-opacity="1"/>
  <path id="svg_2" d="m57.4,16.6l-2.7,0c-0.5,-3.2 -3.3,-5.7 -6.6,-5.7s-6.1,2.5 -6.6,5.7l-2.7,0c-2.9,0 -5.2,2.1 -5.2,4.6l0,0.9l-10,0c-0.6,0 -1,0.4 -1,1l0,65.3c0,0.6 0.4,1 1,1l49,0c0.6,0 1,-0.4 1,-1l0,-65.2c0,-0.6 -0.4,-1 -1,-1l-10,0l0,-0.9c0,-2.6 -2.3,-4.7 -5.2,-4.7zm-21.7,4.7c0,-1.5 1.4,-2.6 3.2,-2.6l3.6,0c0.6,0 1,-0.4 1,-1c0,-2.6 2.1,-4.7 4.7,-4.7s4.7,2.1 4.7,4.7c0,0.6 0.4,1 1,1l3.6,0c1.8,0 3.2,1.2 3.2,2.6l0,4.8l-25,0l0,-4.8zm35.9,66.2l-47,0l0,-63.3l3.9,0l0,57.3c0,0.6 0.4,1 1,1l37.2,0c0.6,0 1,-0.4 1,-1l0,-57.3l3.9,0l0,63.3zm-5.8,-63.3l0,56.3l-35.2,0l0,-56.3l3.2,0l0,2.9c0,0.6 0.4,1 1,1l26.9,0c0.6,0 1,-0.4 1,-1l0,-2.9l3.1,0z" class="" fill="#ffffff" fill-opacity="1"/>
  <circle id="svg_3" r="1.5" cy="17.600000381469727" cx="48.099998474121094" class="" fill="#ffffff" fill-opacity="1"/>
  <path id="svg_4" d="m59.7,68.3l-23.2,0c-0.6,0 -1,0.4 -1,1s0.4,1 1,1l23.2,0c0.6,0 1,-0.4 1,-1s-0.5,-1 -1,-1z" class="" fill="#ffffff" fill-opacity="1"/>
  <path id="svg_5" d="m59.7,73.4l-23.2,0c-0.6,0 -1,0.4 -1,1s0.4,1 1,1l23.2,0c0.6,0 1,-0.4 1,-1s-0.5,-1 -1,-1z" class="" fill="#ffffff" fill-opacity="1"/>
 </g>
</svg>