<svg width="80" height="80" xmlns="http://www.w3.org/2000/svg">

 <g>
  <title>background</title>
  <rect fill="none" id="canvas_background" height="82" width="82" y="-1" x="-1"/>
 </g>
 <g>
  <title>Layer 1</title>
  <g id="svg_1">
   <path id="svg_2" d="m36.984,42.086l-27.984,0c-0.553,0 -1,0.447 -1,1s0.447,1 1,1l27.984,0l0,26l-10.967,0c-0.553,0 -1,0.447 -1,1s0.447,1 1,1l27.967,0c0.553,0 1,-0.447 1,-1s-0.447,-1 -1,-1l-11,0l0,-26l28.016,0c0.553,0 1,-0.447 1,-1s-0.447,-1 -1,-1l-28.016,0l0,-1l8.018,0c0.002,0.552 0.448,0.998 1,0.998c0.553,0 1,-0.447 1,-1l0,-0.999c0,-0.051 -0.021,-0.094 -0.029,-0.143c-0.01,-0.071 -0.016,-0.141 -0.041,-0.207c-0.023,-0.063 -0.062,-0.115 -0.097,-0.17c-0.033,-0.053 -0.061,-0.106 -0.103,-0.153c-0.051,-0.055 -0.113,-0.094 -0.175,-0.136c-0.039,-0.026 -0.066,-0.063 -0.109,-0.085l-9.464,-4.724l0,-1.382l28.016,0c0.553,0 1,-0.448 1,-1s-0.447,-1 -1,-1l-12.992,0l-15.024,0l0,-1.001l14.023,0l0,0.001c0,0.552 0.447,1 1,1s1,-0.448 1,-1l0,-1.001c0,-0.552 -0.447,-1 -1,-1c-0.001,0 -0.001,0 -0.002,0s-0.001,0 -0.002,0l-5.767,0l-9.253,-4.618l0,-1.38l28.017,0c0.553,0 1,-0.448 1,-1s-0.447,-1 -1,-1l-28.016,0l0,-1.001l8.018,0c0,0.552 0.447,1 1,1s1,-0.448 1,-1l0,-1c0,-0.051 -0.021,-0.094 -0.029,-0.143c-0.01,-0.071 -0.016,-0.141 -0.041,-0.207c-0.023,-0.063 -0.062,-0.115 -0.097,-0.17c-0.033,-0.053 -0.061,-0.106 -0.103,-0.153c-0.051,-0.055 -0.113,-0.094 -0.175,-0.136c-0.039,-0.026 -0.066,-0.063 -0.109,-0.085l-9.541,-4.762c-0.227,-1.009 -0.963,-1.817 -1.923,-2.159l0,-1.356c0,-0.552 -0.447,-1 -1,-1s-1,0.448 -1,1l0,1.356c-0.965,0.344 -1.704,1.158 -1.927,2.173l-9.513,4.748c-0.043,0.021 -0.07,0.059 -0.109,0.085c-0.062,0.042 -0.124,0.081 -0.174,0.136c-0.043,0.046 -0.07,0.1 -0.104,0.153c-0.035,0.056 -0.072,0.107 -0.097,0.169c-0.024,0.067 -0.031,0.137 -0.042,0.208c-0.007,0.049 -0.028,0.092 -0.028,0.143l0,1c0,0.549 0.442,0.993 0.99,0.998l-18.98,0c-0.553,0 -1,0.448 -1,1s0.447,1 1,1l27.984,0l0,1.396l-9.229,4.605l-5.767,0c-0.553,0 -1,0.448 -1,1l0,1.001c0,0.542 0.433,0.978 0.971,0.994l-12.959,0c-0.553,0 -1,0.448 -1,1s0.447,1 1,1l27.984,0l0,1.4l-9.439,4.711c-0.043,0.021 -0.07,0.059 -0.109,0.085c-0.062,0.042 -0.124,0.081 -0.174,0.136c-0.043,0.046 -0.07,0.1 -0.104,0.153c-0.035,0.056 -0.072,0.107 -0.097,0.169c-0.024,0.067 -0.031,0.137 -0.042,0.208c-0.007,0.049 -0.028,0.092 -0.028,0.143l0,0.999c0,0.553 0.447,1 1,1c0.552,0 0.999,-0.446 1,-0.998l7.993,0l0,1.001zm0,-25.001l-4.751,0l4.751,-2.372l0,2.372zm2,53.001l0,-29.879c0.005,-0.042 0.024,-0.078 0.024,-0.121s-0.02,-0.08 -0.024,-0.121l0,-4.77c0.01,-0.086 0.013,-0.169 0,-0.256l0,-2.738c0.005,-0.042 0.024,-0.078 0.024,-0.121s-0.02,-0.08 -0.024,-0.121l0,-2.753c0.005,-0.042 0.024,-0.078 0.024,-0.121s-0.02,-0.08 -0.024,-0.121l0,-4.769c0.01,-0.085 0.013,-0.169 0,-0.256l0,-5.732c0.005,-0.042 0.024,-0.078 0.024,-0.121s-0.02,-0.08 -0.024,-0.121l0,-4.77c0.008,-0.065 0.022,-0.127 0.017,-0.193c0.045,-0.51 0.462,-0.916 0.983,-0.916c0.552,0 1,0.449 1,1l0,57l-2,0zm8.776,-31.001l-4.775,0l0,-2.384l4.775,2.384zm-0.001,-11.001l-4.774,0l0,-2.383l4.774,2.383zm-4.775,-13.382l4.775,2.384l-4.775,0l0,-2.384zm-14.983,5.381c0.548,-0.005 0.99,-0.449 0.99,-0.998l7.993,0l0,0.998l-8.983,0zm8.983,5.631l0,2.371l-4.75,0l4.75,-2.371zm-14.965,5.366c0.538,-0.016 0.971,-0.452 0.971,-0.994l0,-0.001l13.995,0l0,0.995l-14.966,0zm10.214,8.005l4.751,-2.372l0,2.372l-4.751,0z"/>
  </g>
 </g>
</svg>