<svg xmlns="http://www.w3.org/2000/svg" xmlns:xlink="http://www.w3.org/1999/xlink" version="1.1" x="0px" y="0px" viewBox="0 0 100 125" style="enable-background:new 0 0 100 100;" xml:space="preserve"><path d="M36.8017578,60.9897461c0.1884766,0.2124023,0.4580078,0.3344727,0.7421875,0.3364258l4.3466797,0.0263672  L39.6386719,76.347168c-0.0634766,0.4248047,0.1513672,0.8427734,0.5332031,1.0385742  c0.1445312,0.0737305,0.3007812,0.1098633,0.4560547,0.1098633c0.2548828,0,0.5068359-0.0976562,0.6982422-0.2841797  l21.8232422-21.2871094c0.2910156-0.2836914,0.3808594-0.7148438,0.2285156-1.0913086s-0.5175781-0.6235352-0.9238281-0.6245117  l-8.7275391-0.0234375l5.7099609-13.4399414c0.1318359-0.309082,0.0996094-0.6630859-0.0859375-0.9428711  s-0.4980469-0.4482422-0.8339844-0.4482422H39.8349609c-0.5087891,0-0.9355469,0.3813477-0.9931641,0.8862305l-2.2851562,19.972168  C36.5244141,60.4946289,36.6132812,60.7773438,36.8017578,60.9897461z M40.7275391,41.3540039h16.2773438L51.296875,54.7900391  c-0.1318359,0.3085938-0.0996094,0.6621094,0.0849609,0.9418945s0.4970703,0.4482422,0.8320312,0.4492188l7.7871094,0.0209961  L42.0585938,73.703125l1.9814453-13.1953125c0.0429688-0.2866211-0.0410156-0.578125-0.2294922-0.7988281  c-0.1884766-0.2202148-0.4638672-0.3476562-0.7539062-0.3496094l-4.3867188-0.0263672L40.7275391,41.3540039z"/><path d="M10.2617188,47.2338867c0.3730469,0.4082031,1.0078125,0.4360352,1.4130859,0.0629883l5.9716797-5.4622192V89  c0,0.5522461,0.4472656,1,1,1h62.4570312c0.5527344,0,1-0.4477539,1-1V41.8344727l6.2216797,5.690918  c0.1914062,0.1757812,0.4335938,0.262207,0.6748047,0.262207c0.2705078,0,0.5410156-0.109375,0.7382812-0.3251953  c0.3720703-0.4072266,0.34375-1.0400391-0.0634766-1.4125977L77.375,34.7991943V14.0834961c0-0.5522461-0.4472656-1-1-1H63.9130859  c-0.5527344,0-1,0.4477539-1,1v7.4873657L50.5498047,10.262207c-0.3808594-0.3496094-0.96875-0.3496094-1.3496094,0  l-38.875,35.559082C9.9179688,46.1938477,9.8896484,46.8266602,10.2617188,47.2338867z M64.9130859,15.0834961H75.375v17.8862915  l-10.4619141-9.569519V15.0834961z M49.875,12.3554688L80.1035156,40.005127V88H19.6464844V40.005249L49.875,12.3554688z"/><text x="0" y="115" fill="#000000" font-size="5px" font-weight="bold" font-family="'Helvetica Neue', Helvetica, Arial-Unicode, Arial, Sans-serif">Created by Made</text><text x="0" y="120" fill="#000000" font-size="5px" font-weight="bold" font-family="'Helvetica Neue', Helvetica, Arial-Unicode, Arial, Sans-serif">from the Noun Project</text></svg>