<svg height="512pt" viewBox="0 0 512 512" width="512pt" xmlns="http://www.w3.org/2000/svg"><path d="m408 504h-400v-400l96-96h304zm0 0" fill="#cfd8dc"/><path d="m408 8h32v496h-32zm0 0" fill="#b0bec5"/><path d="m232 40h144v96h-144zm0 0" fill="#dce775"/><path d="m40 376h48v128h-48zm0 0" fill="#ff8a65"/><path d="m120 440h48v64h-48zm0 0" fill="#ffe082"/><path d="m200 408h48v96h-48zm0 0" fill="#a6e7ff"/><path d="m8 104h96v-96zm0 0" fill="#90a4ae"/><path d="m232 248c0 53.019531-42.980469 96-96 96s-96-42.980469-96-96 42.980469-96 96-96 96 42.980469 96 96zm0 0" fill="#a6e7ff"/><path d="m232 248c0-53.019531-42.980469-96-96-96v96zm0 0" fill="#ffe082"/><path d="m232 248h-96l48 83.070312c29.699219-17.117187 48-48.789062 48-83.070312zm0 0" fill="#ff8a65"/><path d="m328 408h176v32h-176zm0 0" fill="#ffd54f"/><path d="m328 168h176v32h-176zm0 0" fill="#ffd54f"/><path d="m488 200v53.246094c0 6.6875-3.339844 12.933594-8.902344 16.640625l-26.175781 17.449219c-5.585937 3.707031-8.941406 9.960937-8.941406 16.664062s3.355469 12.957031 8.941406 16.664062l26.175781 17.449219c5.5625 3.707031 8.902344 9.953125 8.902344 16.640625v53.246094h-144v-53.246094c0-6.6875 3.339844-12.933594 8.902344-16.640625l26.175781-17.449219c5.585937-3.707031 8.941406-9.960937 8.941406-16.664062s-3.355469-12.957031-8.941406-16.664062l-26.175781-17.449219c-5.5625-3.707031-8.902344-9.953125-8.902344-16.640625v-53.246094zm0 0" fill="#eee"/><path d="m388 304c.023438-6.703125-3.328125-12.96875-8.921875-16.664062l-26.175781-17.449219c-5.5625-3.707031-8.902344-9.953125-8.902344-16.640625v-5.246094h144v5.246094c0 6.6875-3.339844 12.933594-8.902344 16.640625l-26.175781 17.449219c-5.59375 3.695312-8.945313 9.960937-8.921875 16.664062v40c0 17.671875 14.328125 32 32 32h12v32h-144v-32h12c17.671875 0 32-14.328125 32-32zm0 0" fill="#ffe082"/><g fill="#fff"><path d="m256 64h96v16h-96zm0 0"/><path d="m256 96h48v16h-48zm0 0"/><path d="m272 224h48v16h-48zm0 0"/><path d="m272 272h48v16h-48zm0 0"/><path d="m272 320h48v16h-48zm0 0"/><path d="m272 368h48v16h-48zm0 0"/></g><path d="m457.351562 293.992188 26.175782-17.449219c7.792968-5.191407 12.472656-13.9375 12.472656-23.304688v-45.238281h16v-48h-64v-160h-347.3125l-100.6875 100.6875v411.3125h448v-64h64v-48h-16v-45.238281c0-9.367188-4.679688-18.113281-12.472656-23.304688l-26.175782-17.449219c-3.351562-2.222656-5.367187-5.976562-5.367187-10 0-4.023437 2.015625-7.777343 5.367187-10zm22.648438-53.992188h-128v-32h128zm-64-224h16v144h-16zm80 160v16h-160v-16zm-400-148.6875v68.6875h-68.6875zm-16 468.6875h-32v-112h32zm80 0h-32v-48h32zm80 0h-32v-80h32zm160 0h-144v-96h-64v96h-16v-64h-64v64h-16v-128h-64v128h-16v-384h96v-96h288v144h-80v48h16v45.238281c0 9.367188 4.679688 18.113281 12.472656 23.304688l26.175782 17.449219c3.351562 2.222656 5.367187 5.976562 5.367187 10 0 4.023437-2.015625 7.777343-5.367187 10l-26.175782 17.449218c-7.796875 5.195313-12.480468 13.949219-12.472656 23.320313v45.238281h-16v48h80zm-20-166.328125v14.328125c0 13.253906-10.746094 24-24 24h-4v-13.238281c-.003906-4.015625 2.003906-7.765625 5.34375-9.992188zm52 166.328125h-16v-48h16zm64-80v16h-160v-16zm-21.34375-71.199219c3.332031 2.21875 5.335938 5.957031 5.34375 9.960938v13.238281h-4c-13.253906 0-24-10.746094-24-24v-14.328125zm-26.175781-64.121093c-7.800781 5.195312-12.484375 13.949218-12.480469 23.320312v40c.027344 22.082031 17.917969 39.972656 40 40h4v16h-128v-16h4c22.082031-.027344 39.972656-17.917969 40-40v-40c.003906-9.371094-4.679688-18.125-12.480469-23.320312l-26.175781-17.480469c-2.515625-1.683594-4.300781-4.253907-5-7.199219h127.3125c-.699219 2.945312-2.484375 5.515625-5 7.199219zm0 0"/><path d="m384 144v-112h-160v48h-28.441406l-41.078125 65.742188c-55.042969-10.058594-108.210938 25.125-120.472657 79.71875-12.261718 54.59375 20.753907 109.132812 74.8125 123.578124 54.058594 14.445313 109.878907-16.355468 126.484376-69.792968 16.601562-53.433594-11.933594-110.445313-64.65625-129.183594l33.792968-54.0625h19.558594v48zm-144-96h128v80h-128zm-104 288c-46.867188-.242188-85.324219-37.171875-87.457031-83.992188-2.132813-46.820312 32.804687-87.097656 79.457031-91.601562v89.738281l44.839844 77.664063c-11.535156 5.382812-24.109375 8.179687-36.839844 8.191406zm50.695312-16.191406-36.839843-63.808594h73.738281c-2.371094 25.644531-15.855469 48.960938-36.898438 63.808594zm36.898438-79.808594h-79.59375v-79.59375c42.234375 3.910156 75.683594 37.359375 79.59375 79.59375zm0 0"/></svg>