<svg height="512" viewBox="0 0 53 58" width="512" xmlns="http://www.w3.org/2000/svg"><g id="039---Stripping-Wires" transform="translate(0 -1)"><path id="Shape" d="m17.32 21c.4098038-.0003967.7783727.249279.93.63l.58 1.44c1.2729517-.6020348 2.645802-.9647385 4.05-1.07l-1.78-4.73c-.14-.35-.06-.17.85-5 .07-.38.2.37-3.71-10.61-.1431502-.39594744-.5189699-.65982087-.94-.66h-.3c-.5522847 0-1 .44771525-1 1v8.56c-1.2467954-.67936426-2.7532046-.67936426-4 0v-8.56c0-.55228475-.4477153-1-1-1-.5170762-.09875042-1.03313638.17592677-1.24.66l-3.66 10.08c-.15.37-.15.3.84 5 .08.4.08.23-1.82 5.3 1.40355261.095079 2.77704931.4511707 4.05 1.05l.58-1.44c.1516273-.380721.5201962-.6303967.93-.63zm-4.65-8.49c.6645991-.5950706 1.642948-.678043 2.3982685-.2033937.7553206.4746492 1.1049678 1.3921446.8571053 2.2490957s-1.0332989 1.4461375-1.9253738 1.444298c-.8282826-.001708-1.5698089-.513796-1.8647664-1.2877824-.2949576-.7739865-.0823072-1.6497005.5347664-2.2022176z"/><path id="Shape" d="m8.71 32.57c1.14716347-1.2376382 1.7489062-2.8843233 1.67-4.57 0-3.43-4.27-4.15-7.69-4.08-.31181123.008396-.60184581.1618105-.7842596.4148361s-.23631145.5766784-.1457404.8751639c.70780134 1.779536.79239171 3.7462622.24 5.58-1.59 4.85-3.24 13.66-.52 25.86.35898513 1.6181943 1.9618057 2.638985 3.57999998 2.2799999s2.63898505-1.9618056 2.28000002-3.5799999c-1.47822454-6.1224126-1.6925907-12.4819419-.63-18.69.25086172-1.5300577.94641808-2.9524705 2-4.09z"/><path id="Shape" d="m23 58.93c.7771113.1727319 1.5910131.0295102 2.262478-.3981266.6714649-.4276369 1.1454291-1.1046203 1.317522-1.8818734 2.72-12.2 1.07-21-.52-25.86-.5595934-1.8306781-.4856086-3.7965607.21-5.58.090571-.2984855.0366734-.6221383-.1457404-.8751639s-.4724484-.4064401-.7842596-.4148361c-3.43-.07-7.69.65-7.69 4.08-.0789062 1.6856767.5228365 3.3323618 1.67 4.57 1.0535819 1.1375295 1.7491383 2.5599423 2 4.09 1.0625907 6.2080581.8482245 12.5675874-.63 18.69-.1719435.7813591-.0246617 1.5990301.409112 2.2712853.4337736.6722552 1.1181001 1.1433973 1.900888 1.3087147z"/><path id="Shape" d="m40.26 13c.3465476-.0893164.6191211-.3567291.7150446-.7015064.0959236-.3447772.0006241-.7145391-.25-.97-.250624-.2554608-.618497-.35781-.9650446-.2684936-.14 0-2.43.67-3.78 4.05-.8236677-2.4032459-2.3887965-4.4830815-4.47-5.94-.3087061-.2245083-.7182934-.25369305-1.0557132-.07522384-.3374198.17846922-.5438087.53345812-.5319684.91498564.0118404.3815274.2398445.7230353.5876816.8802382 0 0 4.49 2.76 4.49 10.11-.5522847 0-1 .4477153-1 1v36c0 .5522847.4477153 1 1 1h2c.5522847 0 1-.4477153 1-1v-36c0-.5522847-.4477153-1-1-1 0-7 3.09-8 3.26-8z"/><path id="Shape" d="m52.26 13c.5357162-.1380712.8580712-.6842838.72-1.22s-.6842838-.8580712-1.22-.72c-.14 0-2.43.67-3.78 4.05-.8236677-2.4032459-2.3887965-4.4830815-4.47-5.94-.3087061-.2245083-.7182934-.25369305-1.0557132-.07522384-.3374198.17846922-.5438087.53345812-.5319684.91498564.0118404.3815274.2398445.7230353.5876816.8802382 0 0 4.49 2.76 4.49 10.11-.5522847 0-1 .4477153-1 1v36c0 .5522847.4477153 1 1 1h2c.5522847 0 1-.4477153 1-1v-36c0-.5522847-.4477153-1-1-1 0-7 3.09-8 3.26-8z"/></g></svg>